<svg width="64" height="64" viewBox="0 0 64 64" fill="none" xmlns="http://www.w3.org/2000/svg">
<path d="M17.6625 19.8856C18.9453 19.8856 19.9852 18.9233 19.9852 17.7362C19.9852 16.5492 18.9453 15.5869 17.6625 15.5869C16.3797 15.5869 15.3398 16.5492 15.3398 17.7362C15.3398 18.9233 16.3797 19.8856 17.6625 19.8856Z" fill="#2563C5"/>
<path d="M26.5727 19.9202C26.8856 19.9492 27.2011 19.9125 27.499 19.8123C27.7968 19.7121 28.0705 19.5508 28.3023 19.3385C28.5341 19.1263 28.7189 18.868 28.8449 18.5801C28.9709 18.2922 29.0353 17.9812 29.034 17.6669C29.034 17.0325 28.782 16.4241 28.3334 15.9755C27.8848 15.5269 27.2764 15.2749 26.642 15.2749C26.0076 15.2749 25.3992 15.5269 24.9506 15.9755C24.502 16.4241 24.25 17.0325 24.25 17.6669C24.2499 17.9687 24.3104 18.2675 24.4279 18.5455C24.5455 18.8235 24.7177 19.0751 24.9343 19.2853C25.1509 19.4954 25.4076 19.66 25.689 19.769C25.9705 19.8781 26.271 19.9295 26.5727 19.9202Z" fill="#2563C5"/>
<path d="M35.516 19.9202C36.7988 19.9202 37.8387 18.9424 37.8387 17.7362C37.8387 16.5301 36.7988 15.5522 35.516 15.5522C34.2333 15.5522 33.1934 16.5301 33.1934 17.7362C33.1934 18.9424 34.2333 19.9202 35.516 19.9202Z" fill="#2563C5"/>
<path d="M54.1667 9H10.8333C9.68406 9 8.58186 9.45655 7.7692 10.2692C6.95655 11.0819 6.5 12.1841 6.5 13.3333V49.7333C6.5 50.8826 6.95655 51.9848 7.7692 52.7975C8.58186 53.6101 9.68406 54.0667 10.8333 54.0667H54.1667C55.3159 54.0667 56.4181 53.6101 57.2308 52.7975C58.0435 51.9848 58.5 50.8826 58.5 49.7333V13.3333C58.5 12.1841 58.0435 11.0819 57.2308 10.2692C56.4181 9.45655 55.3159 9 54.1667 9ZM10.8333 13.3333H54.1667V22H10.8333V13.3333ZM10.8333 49.7333V26.3333H54.1667V49.7333H10.8333Z" fill="#2563C5"/>
</svg>
