<svg width="24" height="25" viewBox="0 0 24 25" fill="none" xmlns="http://www.w3.org/2000/svg">
<mask id="mask0_0_189" style="mask-type:luminance" maskUnits="userSpaceOnUse" x="0" y="0" width="24" height="25">
<path d="M11.9994 23.3334C13.4223 23.3352 14.8315 23.0558 16.1461 22.5112C17.4607 21.9667 18.6547 21.1678 19.6596 20.1603C20.667 19.1555 21.4659 17.9614 22.0105 16.6468C22.555 15.3322 22.8344 13.923 22.8327 12.5001C22.8344 11.0772 22.555 9.66795 22.0105 8.35336C21.4659 7.03876 20.667 5.84472 19.6596 4.83984C18.6547 3.83243 17.4607 3.0335 16.1461 2.48896C14.8315 1.94442 13.4223 1.665 11.9994 1.66676C10.5764 1.665 9.16721 1.94442 7.85262 2.48896C6.53803 3.0335 5.34399 3.83243 4.33911 4.83984C3.33169 5.84472 2.53277 7.03876 1.98823 8.35336C1.44369 9.66795 1.16427 11.0772 1.16602 12.5001C1.16427 13.923 1.44369 15.3322 1.98823 16.6468C2.53277 17.9614 3.33169 19.1555 4.33911 20.1603C5.34399 21.1678 6.53803 21.9667 7.85262 22.5112C9.16721 23.0558 10.5764 23.3352 11.9994 23.3334Z" fill="white"/>
<path fill-rule="evenodd" clip-rule="evenodd" d="M7.46993 1.56509C8.90585 0.970286 10.4451 0.665001 11.9994 0.666756C13.5536 0.665001 15.0929 0.970286 16.5288 1.56509C17.9646 2.15985 19.2689 3.03238 20.3666 4.13258C21.4669 5.23035 22.3395 6.53468 22.9344 7.97066C23.5292 9.40659 23.8344 10.9459 23.8327 12.5001C23.8344 14.0543 23.5292 15.5936 22.9344 17.0295C22.3396 18.4654 21.467 19.7697 20.3667 20.8674C19.269 21.9677 17.9647 22.8403 16.5288 23.4351C15.0929 24.0299 13.5536 24.3352 11.9994 24.3334C10.4451 24.3352 8.90585 24.0299 7.46993 23.4351C6.03401 22.8403 4.72974 21.9677 3.632 20.8674C2.53173 19.7697 1.65915 18.4654 1.06435 17.0295C0.469554 15.5936 0.164269 14.0543 0.166023 12.5001C0.164269 10.9459 0.469554 9.40659 1.06435 7.97066C1.65915 6.53474 2.53173 5.23047 3.632 4.13273C4.72974 3.03247 6.03401 2.15988 7.46993 1.56509ZM0.166023 12.5001C0.166024 12.4997 0.166024 12.4993 0.166025 12.4989L1.16602 12.5001L0.166025 12.5013C0.166024 12.5009 0.166024 12.5005 0.166023 12.5001ZM11.9994 24.3334C11.9989 24.3334 11.9985 24.3334 11.9981 24.3334L11.9994 23.3334L12.0006 24.3334C12.0002 24.3334 11.9998 24.3334 11.9994 24.3334ZM23.8327 12.5001C23.8327 12.5005 23.8327 12.5009 23.8327 12.5013L22.8327 12.5001L23.8327 12.4989C23.8327 12.4993 23.8327 12.4997 23.8327 12.5001ZM11.9994 0.666756C11.9998 0.666756 12.0002 0.666756 12.0006 0.666757L11.9994 1.66676L11.9981 0.666757C11.9985 0.666756 11.9989 0.666756 11.9994 0.666756ZM11.9981 2.66676C10.707 2.66516 9.4282 2.91871 8.23532 3.41284C7.04244 3.90696 5.95895 4.63192 5.0471 5.54606L5.04532 5.54783C4.13118 6.45968 3.40623 7.54317 2.9121 8.73605C2.41798 9.92893 2.16443 11.2077 2.16602 12.4989V12.5013C2.16443 13.7925 2.41798 15.0713 2.9121 16.2641C3.40623 17.457 4.13118 18.5405 5.04532 19.4523L5.0471 19.4541C5.95895 20.3683 7.04244 21.0932 8.23532 21.5873C9.4282 22.0815 10.707 22.335 11.9981 22.3334H12.0006C13.2918 22.335 14.5705 22.0815 15.7634 21.5873C16.9563 21.0932 18.0398 20.3683 18.9516 19.4541L18.9534 19.4523C19.8675 18.5405 20.5925 17.457 21.0866 16.2641C21.5807 15.0713 21.8343 13.7925 21.8327 12.5013V12.4989C21.8343 11.2077 21.5807 9.92893 21.0866 8.73605C20.5925 7.54317 19.8675 6.45968 18.9534 5.54783L18.9516 5.54606C18.0398 4.63192 16.9563 3.90696 15.7634 3.41284C14.5705 2.91871 13.2918 2.66516 12.0006 2.66676H11.9981Z" fill="white"/>
<path fill-rule="evenodd" clip-rule="evenodd" d="M18.1231 8.54295C18.5137 8.93348 18.5137 9.56664 18.1231 9.95717L11.6231 16.4572C11.2326 16.8477 10.5994 16.8477 10.2089 16.4572L6.95892 13.2072C6.5684 12.8166 6.5684 12.1835 6.95892 11.793C7.34945 11.4024 7.98261 11.4024 8.37314 11.793L10.916 14.3358L16.7089 8.54295C17.0994 8.15243 17.7326 8.15243 18.1231 8.54295Z" fill="black"/>
</mask>
<g mask="url(#mask0_0_189)">
<path d="M-1 -0.5H25V25.5H-1V-0.5Z" fill="#F28EE8"/>
</g>
</svg>
