<svg width="42" height="38" viewBox="0 0 42 38" fill="none" xmlns="http://www.w3.org/2000/svg">
<path d="M30.5002 16.8298C30.5002 16.1725 30.5002 15.8438 30.599 15.5512C30.8859 14.7 31.644 14.3713 32.404 14.0255C33.2551 13.636 33.6807 13.4422 34.1044 13.408C34.5832 13.37 35.0639 13.4726 35.4743 13.7025C36.0177 14.0065 36.3977 14.5879 36.7853 15.0591C38.5769 17.2364 39.4737 18.3251 39.8005 19.524C40.0665 20.493 40.0665 21.5076 39.8005 22.4746C39.3236 24.2264 37.8131 25.6932 36.6941 27.0535C36.1222 27.747 35.8353 28.0947 35.4743 28.298C35.0568 28.5295 34.5801 28.632 34.1044 28.5925C33.6807 28.5583 33.2551 28.3645 32.402 27.975C31.6421 27.6292 30.8859 27.3005 30.599 26.4494C30.5002 26.1568 30.5002 25.8281 30.5002 25.1707V16.8298ZM11.5006 16.8298C11.5006 16.0015 11.4778 15.2586 10.809 14.6772C10.5658 14.4663 10.2428 14.32 9.5987 14.0255C8.74562 13.6379 8.32003 13.4422 7.89634 13.408C6.62906 13.3054 5.94697 14.1718 5.21739 15.061C3.42382 17.2364 2.52704 18.3251 2.19835 19.5259C1.93388 20.4917 1.93388 21.5108 2.19835 22.4765C2.67714 24.2264 4.18951 25.6951 5.30669 27.0535C6.01157 27.9085 6.68606 28.6894 7.89634 28.5925C8.32003 28.5583 8.74562 28.3645 9.5987 27.975C10.2447 27.6824 10.5658 27.5342 10.809 27.3233C11.4778 26.7419 11.5006 25.9991 11.5006 25.1726V16.8298Z" stroke="#2563C5" stroke-width="3" stroke-linecap="round" stroke-linejoin="round"/>
<path d="M7.69965 13.3998C7.69965 7.1033 13.6541 2 20.9994 2C28.3446 2 34.2991 7.1033 34.2991 13.3998M34.2991 28.5995V30.1194C34.2991 33.4767 30.8982 36.1993 26.6993 36.1993H22.8993" stroke="#2563C5" stroke-width="3" stroke-linecap="round" stroke-linejoin="round"/>
</svg>
