<svg width="62" height="124" viewBox="0 0 62 124" fill="none" xmlns="http://www.w3.org/2000/svg">
<g clip-path="url(#clip0_0_62)">
<path d="M111.211 62.005C111.211 34.3774 89.5104 11.7193 62.2241 10.1025C61.6619 10.0407 61.098 10 60.5259 10C60.3569 10 60.1879 10.0179 60.0189 10.0228C59.715 10.0179 59.4128 10 59.1057 10C30.3747 10 7 33.3293 7 62.005C7 90.6807 30.3748 114.01 59.1057 114.01C59.4128 114.01 59.715 113.992 60.0206 113.986C60.1896 113.992 60.3586 114.01 60.5276 114.01C61.0996 114.01 61.6635 113.969 62.2258 113.908C89.5104 112.291 111.211 89.6357 111.211 62.005ZM101.517 78.7463C99.7259 78.2263 95.2278 77.0969 87.291 76.1674C87.9475 71.679 88.3067 66.9354 88.3067 62.005C88.3067 58.1195 88.0824 54.3527 87.668 50.7304C97.7239 49.5295 102.129 48.0165 102.425 47.9124L101.214 44.5014C103.473 49.8934 104.725 55.8053 104.725 62.0049C104.725 67.9153 103.579 73.5591 101.517 78.7463H101.517ZM36.1001 62.0051C36.1001 58.3682 36.3408 54.8173 36.7811 51.4015C42.0511 51.8159 48.3531 52.1214 55.76 52.1929V74.7471C48.5496 74.8169 42.3874 75.1094 37.2051 75.5061C36.4901 71.2207 36.1001 66.682 36.1001 62.0051ZM62.2489 16.9324C70.2182 19.2416 77.0418 30.3081 80.0985 44.9759C75.186 45.3675 69.2691 45.6536 62.2489 45.7203V16.9324ZM55.7603 17.0119V45.7169C48.8164 45.647 42.8736 45.3641 37.8783 44.9824C40.9968 30.4982 47.8756 19.5145 55.7603 17.0119ZM55.7603 81.2242L55.7604 106.996C48.407 104.662 41.9279 94.9527 38.5592 81.9067C43.41 81.5508 49.1318 81.2909 55.7603 81.2242ZM62.2491 107.077L62.249 81.2225C68.9475 81.2858 74.6466 81.5556 79.4357 81.9261C76.1238 95.1427 69.6854 104.922 62.2491 107.077ZM62.249 74.7467L62.2491 52.1958C69.695 52.1259 75.9596 51.8123 81.1598 51.3832C81.5993 54.9072 81.8196 58.455 81.8195 62.0062C81.8195 66.6913 81.4425 71.2349 80.7503 75.5267C75.6297 75.1123 69.4968 74.8149 62.249 74.7467ZM100.017 41.888C99.0356 42.1936 94.9324 43.3587 86.7096 44.3289C84.8766 34.5834 81.5631 26.2534 77.2518 20.2407C87.1582 24.5455 95.2427 32.2563 100.017 41.888ZM43.5481 19.204C38.2455 25.2931 33.9164 34.049 31.5536 44.4038C24.1921 43.6059 19.7799 42.6682 18.0136 42.2424C23.165 31.6145 32.3385 23.2748 43.5481 19.204ZM15.5989 48.3121C16.8502 48.6517 21.5824 49.8296 30.3821 50.803C29.8627 54.5148 29.6021 58.2582 29.6021 62.0062C29.6021 66.9091 30.0457 71.6266 30.8452 76.0922C23.2887 76.9081 18.6411 77.8847 16.5561 78.3885C14.5817 73.3005 13.488 67.7802 13.488 62.0047C13.488 57.2352 14.2307 52.6346 15.5989 48.3121ZM19.4032 84.3848C21.7661 83.8827 25.9961 83.1189 32.2607 82.4624C34.7275 91.5741 38.7398 99.2833 43.5483 104.804C33.2779 101.074 24.7285 93.7582 19.4032 84.3848ZM77.2519 103.767C81.1342 98.3571 84.2072 91.0687 86.1182 82.5598C92.5583 83.2992 96.6014 84.1637 98.6409 84.6789C93.7641 93.1162 86.2646 99.8521 77.2519 103.767Z" fill="white" fill-opacity="0.2"/>
</g>
<defs>
<clipPath id="clip0_0_62">
<rect width="62" height="124" fill="white"/>
</clipPath>
</defs>
</svg>
