<svg width="38" height="36" viewBox="0 0 38 36" fill="none" xmlns="http://www.w3.org/2000/svg">
<path d="M38 16.3485C37.4447 11.7445 35.1871 7.51484 31.6711 4.49111C28.1552 1.46738 23.6352 -0.131624 19 0.00848659C14.3648 -0.131624 9.84482 1.46738 6.32886 4.49111C2.8129 7.51484 0.555313 11.7445 0 16.3485L0 19.2935C0.555313 23.8975 2.8129 28.1271 6.32886 31.1509C9.84482 34.1746 14.3648 35.7736 19 35.6335C23.6352 35.7736 28.1552 34.1746 31.6711 31.1509C35.1871 28.1271 37.4447 23.8975 38 19.2935V16.3485ZM35.0312 16.3485H27.9062C27.7969 14.3053 27.4543 12.2813 26.885 10.316C28.3697 9.71236 29.7674 8.91367 31.0412 7.94099C33.2486 10.228 34.628 13.1874 34.96 16.3485H35.0312ZM13.2288 16.3485C13.3305 14.6268 13.6253 12.9219 14.1075 11.266C15.7065 11.6734 17.3499 11.8808 19 11.8835C20.6738 11.8842 22.3412 11.6768 23.9638 11.266C24.4367 12.9241 24.7313 14.6279 24.8425 16.3485H13.2288ZM24.9137 19.2935C24.814 21.0154 24.5192 22.7205 24.035 24.376C20.7774 23.5496 17.3651 23.5496 14.1075 24.376C13.6253 22.7201 13.3305 21.0152 13.2288 19.2935H24.9137ZM25.8638 7.41849C25.2591 6.08355 24.5525 4.79723 23.75 3.57099C25.4519 4.09913 27.0563 4.90133 28.5 5.94599C27.652 6.55747 26.745 7.08258 25.7925 7.51349L25.8638 7.41849ZM19.6887 3.00099C21.0216 4.66638 22.124 6.50373 22.9662 8.46349C21.6649 8.76008 20.3347 8.91143 19 8.91474C17.6653 8.91143 16.3351 8.76008 15.0337 8.46349C15.8707 6.50105 16.9736 4.663 18.3113 3.00099H19.6887ZM12.2075 7.51349C11.255 7.08258 10.348 6.55747 9.5 5.94599C10.9437 4.90133 12.5481 4.09913 14.25 3.57099C13.4522 4.82117 12.7686 6.14067 12.2075 7.51349ZM7.125 7.91724C8.39883 8.88992 9.79653 9.68861 11.2812 10.2922C10.7057 12.2561 10.363 14.2808 10.26 16.3247H3.135C3.48662 13.1547 4.89158 10.1942 7.125 7.91724ZM3.04 19.2935H10.165C10.268 21.3374 10.6107 23.3621 11.1862 25.326C9.70153 25.9296 8.30383 26.7283 7.03 27.701C4.79658 25.424 3.39162 22.4635 3.04 19.2935ZM12.2075 28.1285C12.7686 29.5013 13.4522 30.8208 14.25 32.071C12.5481 31.5429 10.9437 30.7407 9.5 29.696C10.348 29.0845 11.255 28.5594 12.2075 28.1285ZM18.3113 32.641C16.9736 30.979 15.8707 29.1409 15.0337 27.1785C17.6434 26.574 20.3566 26.574 22.9662 27.1785C22.1293 29.1409 21.0264 30.979 19.6887 32.641H18.3113ZM25.7925 28.1285C26.7861 28.5522 27.7332 29.0775 28.6187 29.696C27.1688 30.7302 25.5661 31.5315 23.8687 32.071C24.6147 30.8105 25.258 29.4921 25.7925 28.1285ZM30.875 27.7247C29.6012 26.7521 28.2035 25.9534 26.7188 25.3497C27.2986 23.3869 27.6415 21.3616 27.74 19.3172H34.865C34.5134 22.4873 33.1084 25.4477 30.875 27.7247Z" fill="#2563C5"/>
</svg>
