<svg width="185" height="50" viewBox="0 0 185 50" fill="none" xmlns="http://www.w3.org/2000/svg">
<g clip-path="url(#clip0_0_7)">
<path d="M90.1096 37.4735C86.8522 36.9965 84.5861 35.0177 83.8249 31.9612C83.3646 30.1237 83.3469 26.3958 83.8072 24.5053C84.1967 22.8799 85.1881 21.2544 86.3388 20.3887C88.3747 18.8339 92.3579 18.2862 95.5091 19.0813C98.4125 19.8233 100.059 21.3604 100.838 24.0636C101.263 25.5301 101.369 30 101.015 31.5195C100.324 34.47 99.0852 35.9718 96.6244 36.9258C95.4029 37.4028 94.9249 37.4912 93.1369 37.5442C92.0038 37.5795 90.6407 37.5442 90.1096 37.4735ZM94.323 34.364C95.4737 34.0106 96.3766 33.0212 96.6421 31.7668C96.89 30.6184 96.89 25.7067 96.6421 24.5407C96.2172 22.5795 94.6239 21.6255 91.9861 21.7668C89.9503 21.8728 89.0297 22.4382 88.3216 23.94C88.0383 24.5583 87.9852 25.106 87.9852 28.0036C87.9852 29.8587 88.0737 31.6608 88.1799 32.0318C88.4278 32.9505 89.4369 34.0106 90.3397 34.3463C91.3134 34.682 93.19 34.6997 94.323 34.364Z" fill="#AEC2DE" stroke="#AEC2DE"/>
<path d="M59.0751 36.9787C59.0043 36.9257 58.9512 31.3604 58.9512 24.6112V12.3674H62.1378H65.3067L66.2804 14.3639C67.2894 16.4664 69.7679 21.5547 72.2818 26.6784C73.0961 28.3745 73.9105 30.0706 74.0521 30.4416C74.2469 30.901 74.4416 31.0953 74.6895 31.0953C75.132 31.0953 75.0966 32.0847 75.132 20.7597L75.1497 12.4558H77.1856H79.2215V24.7349V37.0141L76.2296 37.0671C74.0521 37.1024 73.1847 37.0494 72.9899 36.8904C72.8306 36.7667 71.9277 35.0353 70.954 33.0388C63.4124 17.6148 63.855 18.4805 63.4832 18.4098C63.2177 18.3568 63.2 19.0989 63.2 27.4381C63.2 32.4558 63.1469 36.6607 63.0938 36.8197C63.0052 37.0494 62.6512 37.1024 61.0933 37.1024C60.0488 37.1024 59.1282 37.0494 59.0751 36.9787Z" fill="#AEC2DE" stroke="#AEC2DE"/>
<path d="M109.158 36.8375C108.025 36.5194 107.122 35.7774 106.573 34.6997C106.13 33.8339 106.13 33.7986 106.077 28.3569C106.042 24.9823 105.953 22.8092 105.847 22.7032C105.759 22.6148 105.263 22.5265 104.749 22.5265H103.829L103.776 20.9011L103.723 19.258H104.785C105.564 19.258 105.847 19.1873 105.936 18.9753C105.989 18.8163 106.042 17.5442 106.042 16.1484V13.6042H108.166H110.291V16.2191C110.291 18.0212 110.361 18.9046 110.503 19.0459C110.645 19.1873 111.37 19.258 112.61 19.258C114.168 19.258 114.522 19.311 114.61 19.5406C114.805 20.0353 114.716 22.1908 114.504 22.4028C114.362 22.5442 113.601 22.6148 112.291 22.6148H110.273L110.326 27.6502L110.379 32.6855L110.875 33.1626C111.317 33.6042 111.512 33.6572 112.822 33.7103C113.619 33.7456 114.38 33.8693 114.504 33.9576C114.716 34.152 114.805 36.2898 114.61 36.8198C114.522 37.0671 114.15 37.1025 112.256 37.0848C110.999 37.0848 109.653 36.9611 109.158 36.8375Z" fill="#AEC2DE" stroke="#AEC2DE"/>
<path d="M123.657 36.9258C123.586 36.8198 123.179 35.6007 122.737 34.2226C122.312 32.8446 121.621 30.7244 121.232 29.5053C120.842 28.2863 120.417 26.9435 120.294 26.5018C120.152 26.0601 119.727 24.7173 119.338 23.4983C118.948 22.2792 118.063 19.5053 117.372 17.3145C116.7 15.1237 116.045 13.1096 115.956 12.8446L115.797 12.3499L118.116 12.4029L120.453 12.4559L120.772 13.3393C120.949 13.834 121.214 14.629 121.338 15.106C121.568 15.9188 122.843 19.9824 124.348 24.735C124.879 26.3605 126.189 30.5124 126.826 32.5972C126.985 33.0919 127.162 33.3216 127.428 33.3569C127.747 33.4099 127.835 33.2686 128.083 32.3852C128.242 31.8198 128.49 31.0424 128.614 30.6537C128.862 29.9117 129.216 28.781 130.544 24.47C131.464 21.5018 131.535 21.2544 132.668 17.6679C133.111 16.2544 133.642 14.5053 133.872 13.781L134.279 12.4559L136.28 12.4029C137.59 12.3675 138.262 12.4205 138.262 12.5442C138.262 12.6502 138.121 13.1802 137.926 13.7456C137.749 14.2933 137.377 15.4771 137.112 16.3428C136.616 17.9859 135.695 20.8658 134.545 24.3817C134.173 25.4947 133.66 27.1378 133.394 28.0036C133.128 28.887 132.757 30.0354 132.58 30.5654C132.403 31.0954 131.978 32.4559 131.624 33.5689C131.27 34.682 130.862 35.9364 130.721 36.3605L130.438 37.1025H127.109C124.967 37.1025 123.728 37.0318 123.657 36.9258Z" fill="#AEC2DE" stroke="#AEC2DE"/>
<path d="M141.714 36.8906C141.661 36.7669 141.643 31.2192 141.661 24.5584L141.714 12.4559L148.07 12.4029C154.018 12.3676 154.514 12.3853 155.753 12.721C159.116 13.6397 160.851 16.2722 160.816 20.4065C160.798 22.3146 160.409 23.781 159.577 25.0355C158.957 25.9895 157.311 27.3853 156.797 27.3853C156.638 27.3853 156.479 27.4559 156.426 27.5443C156.231 27.8446 155.115 27.9506 150.743 28.0567L146.317 28.1803L146.228 32.5973L146.14 37.0142L143.962 37.0672C142.334 37.1026 141.767 37.0496 141.714 36.8906ZM154.23 23.7104C155.399 23.1273 155.788 22.2969 155.788 20.2828C155.788 18.6397 155.54 17.8093 154.868 17.2086C154.018 16.4665 153.522 16.3782 149.999 16.2899L146.582 16.2192V20.0885C146.582 22.2263 146.636 24.0284 146.724 24.0991C146.795 24.1874 148.317 24.2051 150.123 24.1697C153.08 24.1167 153.469 24.0637 154.23 23.7104Z" fill="#AEC2DE" stroke="#AEC2DE"/>
<path d="M164.798 35.8304C164.781 34.3287 164.781 12.7032 164.798 12.4912C164.816 12.4205 166.232 12.3852 167.967 12.4029L171.101 12.4559L173.048 16.3605C174.801 19.8587 177.049 24.4877 177.952 26.4135C178.129 26.8022 178.359 27.2438 178.448 27.3852C178.536 27.5265 178.979 28.4276 179.439 29.3817C180.041 30.6537 180.324 31.0954 180.537 31.0601C180.82 31.0071 180.838 30.1767 180.891 21.6785L180.926 12.3499L183.015 12.4029L185.086 12.4559V24.735V37.0142L181.935 37.0672L178.784 37.1025L175.686 30.7951C173.969 27.3145 171.897 23.0919 171.083 21.4311C170.145 19.523 169.49 18.3746 169.33 18.3746C169.1 18.3746 169.065 19.6113 169.03 27.7032L168.976 37.0142L166.905 37.0672L164.816 37.1202L164.798 35.8304Z" fill="#AEC2DE" stroke="#AEC2DE"/>
<path d="M9.29415 49.8233C4.54965 49.0636 0.389362 44.4523 0.0707017 39.5936C-0.141739 36.3958 0.867353 33.5689 3.06257 31.0777C3.7707 30.3004 5.71807 28.8693 6.63864 28.4629C8.35587 27.7032 9.0286 26.7138 9.0286 24.9117C9.0286 23.1802 8.37357 22.3322 6.30228 21.3781C5.47022 20.9894 4.67357 20.424 3.69989 19.4876C2.93864 18.7456 2.30132 18.0742 2.30132 17.9682C2.30132 17.8622 2.42525 17.6502 2.56687 17.4912C2.7262 17.3145 2.92094 16.7491 3.00946 16.2014C3.20419 15 3.73529 13.4099 4.01855 13.1625C4.12477 13.0742 4.31951 12.5088 4.42573 11.9258C4.53195 11.3428 4.8329 10.4594 5.06305 9.96466C5.31089 9.4523 5.57644 8.58657 5.66496 8.0212C5.8597 6.78445 6.35539 5.19435 6.74486 4.59364C6.88649 4.34629 7.20515 3.44523 7.41759 2.56184C7.64773 1.67845 7.89558 0.865726 7.96639 0.724383C8.19654 0.282687 9.5774 0 11.5071 0C13.6669 0 14.9769 0.318022 16.9951 1.34276C20.2171 2.9682 22.8726 7.06714 22.8726 10.424C22.8726 11.3781 22.5185 12.3675 22.1822 12.3675C22.0406 12.3675 21.952 12.6148 21.952 12.9859C21.952 13.3216 21.8989 13.6042 21.8281 13.6042C21.7042 13.6042 21.2085 15.6537 20.7128 18.2862C20.5889 18.8693 20.341 19.841 20.1286 20.4594C19.8276 21.3781 19.6506 21.6254 19.1726 21.8551C18.854 21.9965 18.5884 22.2438 18.5884 22.3675C18.5884 22.6502 18.5884 22.6502 16.8712 22.6148C14.7291 22.5795 13.8793 23.2509 13.6846 25.159C13.5607 26.3604 13.9678 27.2438 14.9415 27.9329C16.5702 29.0813 16.9951 29.5406 16.9951 30.159C16.9951 30.53 16.8889 30.7951 16.7296 30.8481C16.5525 30.9187 16.464 31.2014 16.464 31.7315C16.464 32.2438 16.3755 32.5618 16.2162 32.6148C16.0745 32.6679 15.9329 33.1272 15.8444 33.7986C15.7913 34.3993 15.6142 35.1413 15.4903 35.424C15.3664 35.7244 15.1185 36.5548 14.9592 37.2792C14.7999 38.0035 14.5166 38.9399 14.3219 39.364C14.1449 39.7703 13.9324 40.424 13.8793 40.8127C13.8085 41.2014 13.7023 41.5194 13.6315 41.5194C13.4544 41.5194 12.8879 42.8799 12.4807 44.258C12.0205 45.8481 11.2769 47.7032 11.1176 47.7032C11.0468 47.7032 10.976 47.8622 10.976 48.0565C10.976 48.7103 10.5511 49.8057 10.2678 49.8587C10.1262 49.894 9.68362 49.8763 9.29415 49.8233Z" fill="#AEC2DE"/>
<path d="M34.5214 27.2615C34.5214 27.1731 34.8047 26.9435 35.141 26.7138L35.7607 26.3251V26.8551C35.7607 27.3498 35.7075 27.3852 35.141 27.3852C34.8047 27.3852 34.5214 27.3322 34.5214 27.2615Z" fill="#AEC2DE"/>
<path d="M24.4305 22.5265C24.4305 22.3852 24.3597 22.2615 24.2535 22.2615C24.165 22.2615 24.0764 21.9788 24.0764 21.6431C24.0764 20.8127 24.3066 20.8657 24.8554 21.8021C25.4219 22.7739 25.4219 22.7915 24.8731 22.7915C24.5898 22.7915 24.4305 22.6855 24.4305 22.5265Z" fill="#AEC2DE"/>
<path d="M32.2731 47.7385C30.8922 46.6255 29.8123 45.3534 29.1573 44.0636C28.2013 42.1555 27.9712 40.7951 27.9712 37.0318C27.9712 34.9647 27.8827 33.3039 27.7233 32.4735C27.4401 31.0071 26.7674 29.2226 26.1123 28.2509C25.652 27.5442 25.6875 27.3852 26.3248 27.3852C26.6965 27.3852 26.7319 27.3145 26.7319 26.3428C26.7319 25.053 27.0506 24.682 27.7587 25.1237C28.2013 25.4064 28.6616 25.6184 30.5382 26.5018C32.0607 27.2085 33.9726 27.4028 34.8578 26.9611C35.442 26.6431 36.2386 25.53 36.398 24.8057C36.5396 24.0989 36.4283 22.8571 35.7252 22.4558C35.5305 22.2615 34.9463 21.9081 34.4506 21.6785C33.176 21.0601 31.087 19.4523 30.3434 18.4629C29.7592 17.7032 29.7061 17.5795 29.83 16.8198C29.9008 16.3604 30.131 15.4417 30.3611 14.7527C30.5913 14.0813 30.8745 13.0389 30.9807 12.4558C31.1047 11.8728 31.4233 10.9541 31.6889 10.424C31.9544 9.894 32.2377 9.09894 32.3085 8.65725C32.3793 8.21555 32.5032 7.79152 32.574 7.68551C32.6449 7.59718 32.7865 6.99647 32.8927 6.37809C33.0166 5.75972 33.2468 4.92933 33.4415 4.52297C33.8133 3.74559 34.2559 2.36749 34.4329 1.46643C34.5391 0.971733 34.663 0.865726 35.6367 0.530036C39.2128 -0.689045 43.5324 0.335691 46.4358 3.10954C47.0908 3.76325 47.2501 3.99293 47.0377 4.02827C46.8252 4.08127 46.7367 4.27562 46.7367 4.77032C46.7367 5.14135 46.6659 5.47704 46.5597 5.51237C46.365 5.56538 45.9578 7.0318 45.5683 9.08127C45.409 9.85866 45.108 10.8657 44.8602 11.3428C44.63 11.8021 44.3114 12.6502 44.152 13.1979C43.9927 13.7633 43.798 14.5053 43.6917 14.841C43.6032 15.1767 43.4616 15.7421 43.3731 16.0777C43.3023 16.4134 43.0367 17.1908 42.7889 17.8092C42.541 18.4099 42.2047 19.364 42.0453 19.9293C41.886 20.477 41.6913 21.0247 41.6028 21.1131C41.5319 21.2191 41.3726 21.6078 41.2487 21.9965C41.1248 22.3852 40.9477 22.8092 40.8415 22.9329C40.7353 23.0742 40.5406 23.7809 40.4166 24.523C40.275 25.265 40.098 26.3251 39.9917 26.8551C39.8324 27.8445 39.3367 29.1519 39.0889 29.3463C39.0004 29.3993 38.8233 30.0353 38.6817 30.7597C38.5401 31.4841 38.186 32.6855 37.9028 33.4629C37.6018 34.2226 37.1946 35.583 36.9999 36.4664C36.6812 37.7915 35.92 40.0353 35.0348 42.1908C34.9463 42.4205 34.8755 42.7385 34.8755 42.9152C34.8755 43.0919 34.5568 43.8869 34.1674 44.6643C33.5477 45.8834 33.4592 46.2191 33.4592 47.2438C33.4592 47.8799 33.3884 48.4099 33.2999 48.4099C33.2114 48.4099 32.7511 48.1095 32.2731 47.7385Z" fill="#AEC2DE"/>
<path d="M36.7343 49.7527C36.1324 49.6466 35.0702 49.258 34.3444 48.9223C33.2645 48.4099 32.9812 48.1802 32.8042 47.7209C32.6803 47.3852 32.6803 47.2085 32.7865 47.2792C32.9104 47.3498 32.9281 47.1555 32.8396 46.6785C32.7334 46.0601 32.8219 45.7597 33.53 44.3286C33.9726 43.4452 34.3444 42.5618 34.3444 42.3852C34.3444 42.2085 34.4152 41.8905 34.5037 41.6608C35.3889 39.5053 36.1501 37.2615 36.4688 35.9364C36.6635 35.053 37.0707 33.6926 37.3717 32.9329C37.6549 32.1555 38.009 30.9541 38.1506 30.2297C38.2922 29.5053 38.4693 28.8693 38.5578 28.8163C38.8056 28.6219 39.3013 27.3145 39.4607 26.3251C39.5669 25.7951 39.7439 24.735 39.8855 23.9929C40.0095 23.2509 40.2042 22.5442 40.3104 22.4028C40.4166 22.2792 40.5937 21.8551 40.7176 21.4664C40.8415 21.0777 41.0008 20.689 41.0717 20.583C41.1602 20.4947 41.3549 19.947 41.5142 19.3993C41.6736 18.8339 42.0099 17.8799 42.2578 17.2792C42.5056 16.6608 42.7712 15.8834 42.842 15.5477C42.9305 15.212 43.0721 14.6466 43.1606 14.311C43.2669 13.9753 43.4616 13.2332 43.6209 12.6678C43.7803 12.1201 44.0989 11.2721 44.3291 10.8127C44.5769 10.3357 44.8779 9.32862 45.0372 8.55124C45.409 6.5901 45.8162 5.07067 46.0109 4.96467C46.0994 4.89399 46.1171 4.54063 46.0463 4.11661C45.9401 3.55123 45.9578 3.35689 46.1525 3.28622C46.5243 3.14488 46.5951 3.16254 46.4712 3.35689C46.4181 3.4629 46.4712 3.53357 46.6305 3.53357C47.0377 3.53357 48.0468 4.82332 48.7372 6.23675C50.3482 9.48763 50.3482 13.1272 48.7372 16.3428C48.2946 17.1908 48.0999 17.4912 47.2147 18.6042C46.5774 19.417 44.6654 20.8657 43.32 21.5371C41.6382 22.4028 41.0894 23.0919 40.9477 24.5936C40.8592 25.583 40.9123 25.8834 41.2487 26.5724C41.6736 27.4558 42.1516 27.8622 43.6917 28.6396C44.2406 28.9223 44.8425 29.2756 45.0372 29.417C45.3382 29.6466 45.3382 29.682 45.0726 29.9647C44.5415 30.4947 44.2583 31.0071 44.0989 31.8198C43.9396 32.5972 43.5147 33.8693 43.0721 34.9293C42.9482 35.2297 42.842 35.6007 42.842 35.7421C42.842 35.9011 42.7358 36.2368 42.5941 36.5194C42.0985 37.4912 41.9568 37.9152 41.5319 39.5583C41.2841 40.4594 40.9654 41.3958 40.8061 41.6254C40.6645 41.8551 40.5406 42.2792 40.5406 42.5618C40.5406 42.8622 40.4697 43.2686 40.3812 43.4982C40.275 43.7279 40.1688 44.1873 40.098 44.5406C40.0449 44.894 39.8501 45.371 39.6554 45.583C39.4607 45.7951 39.2659 46.1484 39.2128 46.3604C39.142 46.5548 38.9827 46.9965 38.841 47.3145C38.4339 48.1979 38.8233 49.1166 39.5846 49.1166C39.9209 49.1166 40.0095 49.205 40.0095 49.5583C40.0095 49.9823 39.974 50 38.9118 49.9823C38.2922 49.9647 37.3185 49.8763 36.7343 49.7527Z" fill="#AEC2DE"/>
<path d="M38.6109 49.8057C38.5932 49.6467 38.4161 49.3816 38.2037 49.2226C37.9736 49.0636 37.8851 48.9576 37.9913 49.0106C38.1329 49.0813 38.1683 48.8339 38.0975 48.2509C38.0444 47.7032 38.1152 47.1908 38.2922 46.8021C38.4516 46.4664 38.6109 46.0247 38.6817 45.8304C38.7348 45.6184 38.9295 45.265 39.1243 45.053C39.319 44.841 39.5138 44.364 39.5669 44.0106C39.6377 43.6573 39.7439 43.1979 39.8501 42.9682C39.9386 42.7385 40.0095 42.3322 40.0095 42.0495C40.0095 41.7668 40.1865 41.2544 40.3989 40.9011C40.6114 40.53 40.7884 39.9293 40.7884 39.4876C40.8061 39.0283 40.8592 38.8163 40.9477 38.9223C41.0362 39.0459 41.0717 38.9399 41.0185 38.6572C40.9831 38.3569 41.0185 38.2156 41.1248 38.2862C41.231 38.3569 41.2664 38.2862 41.1956 38.1095C41.1425 37.9329 41.1602 37.8092 41.2487 37.8092C41.3549 37.8092 41.4257 37.6855 41.4257 37.5442C41.4257 37.2792 41.4788 37.1378 42.0099 36.0777C42.1693 35.7421 42.3109 35.371 42.3109 35.212C42.3109 35.0707 42.4171 34.6997 42.541 34.3993C43.0013 33.3392 43.4085 32.0671 43.5678 31.2721C43.6563 30.8304 43.8865 30.265 44.0812 30C44.3291 29.6643 44.3645 29.5053 44.2051 29.4523C44.0989 29.3993 44.2051 29.3463 44.453 29.3463C45.409 29.311 47.5157 31.3251 48.631 33.3216C49.6401 35.1237 49.9233 36.2898 49.9233 38.6926C49.9233 40.3887 49.8348 41.1484 49.5693 42.0141C48.3123 46.0071 44.5946 49.258 40.6291 49.841C39.9563 49.9293 39.5492 49.9293 39.5138 49.8233C39.4252 49.576 38.8233 49.6113 38.7171 49.8763C38.6463 50 38.6109 49.9823 38.6109 49.8057Z" fill="#AEC2DE"/>
<path d="M38.2568 45.7421C38.2568 45.583 38.363 45.3534 38.5047 45.2297C38.6817 45.0707 38.7702 45.0707 38.7702 45.212C38.7702 45.318 38.6994 45.4064 38.6109 45.4064C38.5224 45.4064 38.3985 45.5477 38.363 45.7244C38.2922 45.9717 38.2745 45.9717 38.2568 45.7421Z" fill="#AEC2DE"/>
<path d="M48.0999 16.8198C47.9052 16.7845 47.7989 16.6254 47.8343 16.4664C47.9051 16.1131 48.6841 15.9364 48.6841 16.2898C48.6841 16.6784 48.4363 16.8905 48.0999 16.8198Z" fill="#AEC2DE"/>
<path d="M49.1975 14.311C49.0205 14.2049 48.9496 13.9753 49.0028 13.5512C49.0559 13.0565 49.1267 12.9505 49.4099 13.0212C49.8171 13.1272 49.8702 13.4276 49.4807 13.4276C49.1798 13.4276 49.1267 13.7279 49.4099 13.8163C49.5162 13.8516 49.587 14.0106 49.5516 14.1696C49.4985 14.3816 49.4099 14.417 49.1975 14.311Z" fill="#AEC2DE"/>
<path d="M14.7822 48.8693C14.5166 48.6749 14.4812 48.4806 14.5697 47.6855C14.8176 45.583 15.03 44.5406 15.3664 43.7986C15.5611 43.3746 15.8444 42.4735 16.0214 41.7845C16.1807 41.1131 16.464 40.3004 16.6587 40C16.8358 39.6996 17.1013 38.9929 17.2429 38.4099C17.5793 36.9611 18.252 35 18.6061 34.3463C18.854 33.8869 18.8894 33.5159 18.8185 32.3498C18.6946 30.583 18.9248 30.477 19.9693 31.8551C21.4386 33.7809 21.952 35.2827 22.076 38.0212C22.2176 40.9894 21.8635 42.4912 20.5004 44.7527C19.7391 45.9894 17.7741 47.8622 16.4817 48.5512C15.2779 49.1873 15.2425 49.2049 14.7822 48.8693Z" fill="#AEC2DE"/>
<path d="M25.6697 27.5088C25.0678 26.4311 23.4391 24.9117 22.1645 24.2403C21.0492 23.6396 20.7305 23.1449 21.4741 23.1449C21.8458 23.1449 21.9166 23.0035 22.1114 22.1731C22.2353 21.6431 22.4123 21.2014 22.5008 21.2014C22.5894 21.2014 22.6602 21.0424 22.6602 20.8481C22.6602 20.5477 22.7841 20.4947 23.4214 20.4947C24.0941 20.4947 24.1827 20.5477 24.4128 21.0777C24.9793 22.3498 26.5903 24.2933 27.741 25.053L28.1659 25.318L27.7587 25.5124C27.4047 25.689 27.3516 25.8481 27.3516 26.8198C27.3516 27.8975 27.263 28.0389 26.6611 27.9329C26.5903 27.9152 26.4133 27.9859 26.3071 28.0742C26.1477 28.2156 25.9707 28.0565 25.6697 27.5088Z" fill="#AEC2DE"/>
<path d="M29.7946 17.7385C28.2367 15.5124 27.4401 11.9611 27.9535 9.31096C28.219 7.87986 29.2458 5.61838 30.131 4.4523C31.5119 2.66785 34.6807 0.477032 35.3358 0.848057C35.5836 0.989399 35.5836 1.02474 35.3535 1.11307C35.2118 1.16608 35.0348 1.51943 34.9817 1.89046C34.8224 2.80919 34.3798 4.18728 33.9726 5.053C33.7779 5.45937 33.5477 6.28975 33.4238 6.90813C33.3176 7.5265 33.176 8.12721 33.1051 8.21555C33.0343 8.32156 32.9104 8.74558 32.8396 9.18728C32.7688 9.62898 32.4855 10.424 32.22 10.9541C31.9544 11.4841 31.6004 12.5442 31.441 13.3039C31.2994 14.0636 31.0693 14.841 30.963 15.0353C30.8745 15.2297 30.6444 16.0424 30.4674 16.8198L30.1664 18.2509L29.7946 17.7385Z" fill="#AEC2DE"/>
<path d="M9.78984 49.8763C9.48888 49.7703 9.48888 49.2933 9.78984 49.2933C10.02 49.2933 10.4449 48.1449 10.4449 47.5265C10.4449 47.3322 10.5157 47.1731 10.5865 47.1731C10.7458 47.1731 11.4894 45.318 11.9496 43.7279C12.3568 42.3498 12.9233 40.9894 13.1004 40.9894C13.1712 40.9894 13.2774 40.6714 13.3482 40.2827C13.4013 39.894 13.6138 39.2403 13.7908 38.8339C13.9855 38.4099 14.2688 37.4735 14.4281 36.7491C14.5874 36.0247 14.8353 35.1944 14.9592 34.894C15.0831 34.6113 15.2602 33.8693 15.3133 33.2686C15.4018 32.5972 15.5434 32.1378 15.6851 32.0848C15.8444 32.0318 15.9329 31.7138 15.9329 31.2014C15.9329 30.6537 16.0214 30.3887 16.2162 30.318C16.464 30.2297 16.4463 30.1413 16.0391 29.735C15.7913 29.4876 15.5788 29.1696 15.5788 29.0459C15.5788 28.5512 16.0037 28.6219 17.0482 29.311C18.376 30.1944 19.8276 31.4311 19.5267 31.4488C19.2434 31.4488 19.2257 32.4382 19.4913 32.5972C19.7391 32.7562 19.5444 33.9929 19.1195 34.894C18.7123 35.7244 18.0042 37.8975 17.7032 39.1343C17.597 39.629 17.3492 40.265 17.1721 40.5477C16.9951 40.8481 16.7118 41.6431 16.5525 42.3145C16.3755 43.0035 16.0922 43.9046 15.8975 44.3286C15.7028 44.7527 15.4726 45.6184 15.3841 46.2544C15.2956 46.8905 15.1717 47.5795 15.1185 47.8092C15.03 48.1449 15.1008 48.2686 15.4726 48.4276C16.1099 48.7279 16.0568 48.8516 15.2071 49.1873C13.5607 49.841 10.6219 50.2297 9.78984 49.8763Z" fill="#AEC2DE"/>
<path d="M20.2702 23.3746C18.755 22.8205 18.8717 22.8975 18.4645 22.7915C18.0042 22.6678 17.7032 22.4912 17.7032 22.3498C17.7032 22.2085 17.7918 22.0848 17.8803 22.0848C17.9865 22.0848 18.0573 21.9788 18.0573 21.8375C18.0573 21.7138 18.3229 21.4664 18.6415 21.3251C19.1195 21.0954 19.2965 20.8481 19.5975 19.9293C20.0047 18.7456 20.1994 17.8975 20.2525 17.1555C20.3233 16.3958 21.1377 13.1625 21.2793 13.1095C21.3678 13.0742 21.4209 12.7739 21.4209 12.4382C21.4209 12.0848 21.5095 11.8375 21.6511 11.8375C21.9166 11.8375 22.3061 11.0247 22.3061 10.4594C22.3061 10.159 22.3946 10.053 22.6248 10.106C22.8903 10.159 22.9257 10.4594 22.9611 13.2155C22.9788 16.4134 23.2798 18.5512 23.8817 19.8763C24.4836 21.1838 24.4836 21.1837 23.7932 21.0777C23.2621 20.9894 23.1913 21.0247 23.1913 21.3604C23.1913 21.5548 23.1205 21.7315 23.0319 21.7315C22.9434 21.7315 22.7841 22.1555 22.6602 22.6678C22.3415 24.0636 22.2884 24.205 22.1291 24.205C21.8492 24.205 21.7854 23.9286 20.2702 23.3746Z" fill="#AEC2DE"/>
<path d="M27.8473 10.689C27.8473 10.3004 27.8827 10.159 27.9181 10.3887C27.9535 10.6007 27.9535 10.9187 27.9181 11.0954C27.865 11.2544 27.8296 11.0777 27.8473 10.689Z" fill="#AEC2DE"/>
<path d="M2.23051 17.9329C1.6286 17.1378 1.00898 15.9187 0.513286 14.4876C0.194625 13.5512 0.106108 12.9682 0.106108 11.2191C0.106108 8.85159 0.230031 8.35689 1.43386 5.97173C2.7085 3.42756 5.45252 1.18375 8.17883 0.441696L9.01089 0.212014L8.69223 0.848057C8.5152 1.21908 8.17883 2.20848 7.96639 3.09187C7.73625 3.97527 7.41759 4.87633 7.27597 5.12368C6.88649 5.72438 6.3908 7.31449 6.19606 8.55124C6.10754 9.11661 5.84199 9.98233 5.59415 10.4947C5.364 10.9894 5.06305 11.8728 4.95683 12.4558C4.85061 13.0389 4.65587 13.6042 4.54965 13.6926C4.26639 13.9399 3.73529 15.53 3.54056 16.7138C3.45204 17.2438 3.2219 17.8799 3.04486 18.1095L2.6908 18.5512L2.23051 17.9329Z" fill="#AEC2DE"/>
</g>
<defs>
<clipPath id="clip0_0_7">
<rect width="185" height="50" fill="white"/>
</clipPath>
</defs>
</svg>
