<svg width="62" height="124" viewBox="0 0 62 124" fill="none" xmlns="http://www.w3.org/2000/svg">
<g clip-path="url(#clip0_0_76)">
<path d="M73.617 14.2085H30.3823C25.226 14.2085 21.041 18.5123 21.041 23.8185V100.182C21.041 105.488 25.226 109.792 30.3823 109.792H73.617C78.7733 109.792 82.9583 105.488 82.9583 100.182V23.8185C82.9583 18.5123 78.7733 14.2085 73.617 14.2085Z" stroke="white" stroke-opacity="0.2" stroke-width="4" stroke-linecap="round" stroke-linejoin="round"/>
<path d="M41.6818 27.2388H62.3175M51.9997 96.994C52.3658 97.0167 52.7327 96.9642 53.0778 96.8397C53.4229 96.7153 53.7388 96.5214 54.0061 96.2702C54.2734 96.019 54.4865 95.7157 54.6321 95.379C54.7777 95.0423 54.8529 94.6793 54.8529 94.3124C54.8529 93.9456 54.7777 93.5826 54.6321 93.2459C54.4865 92.9092 54.2734 92.6059 54.0061 92.3547C53.7388 92.1035 53.4229 91.9096 53.0778 91.7852C52.7327 91.6607 52.3658 91.6082 51.9997 91.631C51.3173 91.6733 50.6767 91.9743 50.2084 92.4725C49.7402 92.9707 49.4795 93.6287 49.4795 94.3124C49.4795 94.9962 49.7402 95.6542 50.2084 96.1524C50.6767 96.6506 51.3173 96.9516 51.9997 96.994Z" stroke="white" stroke-opacity="0.2" stroke-width="4" stroke-linecap="round" stroke-linejoin="round"/>
</g>
<defs>
<clipPath id="clip0_0_76">
<rect width="62" height="124" fill="white"/>
</clipPath>
</defs>
</svg>
