<svg width="64" height="64" viewBox="0 0 64 64" fill="none" xmlns="http://www.w3.org/2000/svg">
<path d="M56.6429 29.4286H34.3571V23.8571H36.2143C37.1994 23.8571 38.1441 23.4658 38.8407 22.7693C39.5372 22.0727 39.9286 21.1279 39.9286 20.1429V12.7143C39.9286 11.7292 39.5372 10.7845 38.8407 10.0879C38.1441 9.39133 37.1994 9 36.2143 9H28.7857C27.8006 9 26.8559 9.39133 26.1593 10.0879C25.4628 10.7845 25.0714 11.7292 25.0714 12.7143V20.1429C25.0714 21.1279 25.4628 22.0727 26.1593 22.7693C26.8559 23.4658 27.8006 23.8571 28.7857 23.8571H30.6429V29.4286H8.35714C7.8646 29.4286 7.39223 29.6242 7.04394 29.9725C6.69566 30.3208 6.5 30.7932 6.5 31.2857C6.5 31.7783 6.69566 32.2506 7.04394 32.5989C7.39223 32.9472 7.8646 33.1429 8.35714 33.1429H15.7857V40.5714H13.9286C12.9435 40.5714 11.9987 40.9628 11.3022 41.6593C10.6056 42.3559 10.2143 43.3006 10.2143 44.2857V51.7143C10.2143 52.6994 10.6056 53.6441 11.3022 54.3407C11.9987 55.0372 12.9435 55.4286 13.9286 55.4286H21.3571C22.3422 55.4286 23.287 55.0372 23.9835 54.3407C24.6801 53.6441 25.0714 52.6994 25.0714 51.7143V44.2857C25.0714 43.3006 24.6801 42.3559 23.9835 41.6593C23.287 40.9628 22.3422 40.5714 21.3571 40.5714H19.5V33.1429H45.5V40.5714H43.6429C42.6578 40.5714 41.713 40.9628 41.0165 41.6593C40.3199 42.3559 39.9286 43.3006 39.9286 44.2857V51.7143C39.9286 52.6994 40.3199 53.6441 41.0165 54.3407C41.713 55.0372 42.6578 55.4286 43.6429 55.4286H51.0714C52.0565 55.4286 53.0013 55.0372 53.6978 54.3407C54.3944 53.6441 54.7857 52.6994 54.7857 51.7143V44.2857C54.7857 43.3006 54.3944 42.3559 53.6978 41.6593C53.0013 40.9628 52.0565 40.5714 51.0714 40.5714H49.2143V33.1429H56.6429C57.1354 33.1429 57.6078 32.9472 57.9561 32.5989C58.3043 32.2506 58.5 31.7783 58.5 31.2857C58.5 30.7932 58.3043 30.3208 57.9561 29.9725C57.6078 29.6242 57.1354 29.4286 56.6429 29.4286ZM28.7857 12.7143H36.2143V20.1429H28.7857V12.7143ZM21.3571 51.7143H13.9286V44.2857H21.3571V51.7143ZM51.0714 51.7143H43.6429V44.2857H51.0714V51.7143Z" fill="#2563C5"/>
</svg>
