<svg xmlns="http://www.w3.org/2000/svg" width="822" height="598" fill="none"><path fill="#B8C8DB" fill-opacity=".6" d="M75.393 33.6H97.52v-5.143H75.274V33.6zm25.714 0h9.808v-5.143h-9.808zm13.156 0h22.246v-5.143h-22.246zm-55.853 0h13.395v-5.143H58.41zM72.403 51.78h36.239v-5.143H72.403zm47.362 0h16.864v-5.143h-16.864zm-7.535 0h4.067v-5.143h-4.067zm53.82-5.143v5.142h20.093v-5.142zM58.41 51.779h10.525v-5.142H58.41zm81.687 0h22.485v-5.142h-22.485zM115.699 60.87h3.827v-5.144h-3.827zm-37.555 0h18.658v-5.144H78.144zm22.246 0h11.84v-5.144h-11.84zm69.607-5.144v5.143h16.026v-5.143zM58.41 60.87h16.266v-5.143H58.41zm88.504 0h19.615v-5.143h-19.615zm-23.92 0h20.452v-5.143h-20.452zM88.55 69.959h15.189v-5.143h-15.19zm18.537 0h12.917v-5.143h-12.917zm16.386 0h5.023v-5.143h-5.023zm35.521-5.143v5.143h27.149v-5.143zM58.41 69.959h26.671v-5.143h-26.67zm73.674 0h23.441v-5.143h-23.441zM99.792 79.048h24.159v-5.142h-24.16zm-29.183 0h15.668v-5.142H70.609zm19.136 0h6.578v-5.142h-6.578zm-31.335 0h8.731v-5.142h-8.73zm104.65-5.023v5.143h23.083v-5.143zm-24.996 5.023h21.408v-5.142h-21.408zm-10.525 0h7.056v-5.142h-7.056zM94.051 88.258h27.986v-5.143H94.051zm-11.84 0h8.372v-5.143H82.21zm75.706-5.143v5.142h28.106v-5.142zM58.41 88.257h20.332v-5.142H58.41zm67.096 0h28.943v-5.142h-28.943zM106.37 97.347h12.677v-5.143H106.37zm-33.01 0h8.372v-5.143H73.36zm11.84 0h17.701v-5.143h-17.7zm37.316 0h2.511v-5.143h-2.511zm46.524-5.143v5.143h17.103v-5.143zM58.41 97.347h11.482v-5.143H58.41zm70.086 0h16.863v-5.143h-16.863zm20.451 0h16.625v-5.143h-16.625zM81.971 106.437h21.17v-5.143h-21.17zm24.638 0h12.438v-5.143h-12.318v5.143zm15.907 0h6.817v-5.143h-6.817zm-64.106 0h20.093v-5.143H58.41zm74.391 0h21.648v-5.143h-21.648zm40.066-5.143v5.143h13.276v-5.143zm-14.95 5.143h11.362v-5.143h-11.362zM74.676 115.526h18.657v-5.142H74.676zm22.126 0h6.578v-5.142h-6.578zm10.046 0h22.126v-5.142h-22.126zm-48.438 0h12.797v-5.142H58.41zm74.152 0h19.375v-5.142h-19.375zm39.468-5.142v5.142h13.993v-5.142zm-16.624 5.142h13.156v-5.142h-13.156zM85.8 124.616h23.441v-5.143H85.799zm82.284-5.143v5.143h18.299v-5.143zm-55.255 5.143h9.089v-5.143h-9.089zm12.558 0h39.348v-5.143h-39.348zm-66.617 0h23.56v-5.143H58.77zM72.164 255.805h18.06v-5.143h-18.06zm20.93 0h7.894v-5.143h-7.894zm10.764 0h18.06v-5.143h-18.06zm-45.448 0h10.884v-5.143H58.41zm85.514-5.143v5.143h18.299v-5.143zm-19.136 5.143h16.385v-5.143h-16.385zM69.772 273.984h29.541v-5.143h-29.54zm38.511 0h13.754v-5.143h-13.754zm-6.099 0h3.349v-5.143h-3.349zm-43.774 0h8.492v-5.143H58.41zm66.498 0h18.299v-5.143h-18.299zM105.054 283.193h3.11v-5.143h-3.11zm-30.498 0h15.19v-5.143h-15.19zm17.94 0h9.688v-5.143h-9.688zm-34.086 0h13.276v-5.143H58.41zm52.505 0h16.624v-5.143h-16.624zM633.291 160.383h18.059v-5.382h-18.059zm20.212 0h7.176v-5.382h-7.176zm-32.292 0h9.807v-5.382h-9.807zm41.74-5.382v5.382h11.123v-5.382zM638.314 171.267h15.069v-5.382h-15.069zm17.342 0h11.242v-5.382h-11.242zm13.395-5.382v5.382h5.023v-5.382zm-47.84 5.382h14.83v-5.382h-14.83zM641.782 182.151h6.459v-5.382h-6.459zm8.611 0h11.96v-5.382h-11.96zm-21.767 0h10.884v-5.382h-10.884zm36-5.382v5.382h9.448v-5.382zm-43.415 5.382h5.262v-5.382h-5.262z"/><path fill="url(#a)" fill-opacity=".7" d="M432 553c149.117 0 270-20.595 270-46s-120.883-46-270-46-270 20.595-270 46 120.883 46 270 46"/><path fill="#fff" d="m614.331 497.416 24.996-213.605c.359-2.751-1.913-5.263-4.784-5.143l-269.099 9.09a4.72 4.72 0 0 0-4.426 3.946l-29.66 204.516c-.359 2.751 1.794 5.263 4.544 5.263h273.765c2.392 0 4.305-1.794 4.664-4.067"/><path fill="url(#b)" d="m614.331 497.416 24.997-213.605c.358-2.751-1.914-5.263-4.784-5.143l-269.1 9.09a4.72 4.72 0 0 0-4.426 3.946l-29.66 204.516c-.359 2.751 1.794 5.263 4.544 5.263h273.765c2.392 0 4.305-1.794 4.664-4.067"/><path fill="#000" d="m612.657 497.416 24.997-213.605c.358-2.751-1.914-5.263-4.784-5.143l-269.1 9.09a4.72 4.72 0 0 0-4.426 3.946l-29.66 204.516c-.359 2.751 1.794 5.263 4.544 5.263h273.765c2.392 0 4.425-1.794 4.664-4.067"/><path fill="url(#c)" d="m611.103 481.988 23.202-198.656c0-.478-.12-.837-.359-.956-.12-.12-.478-.359-.957-.359l-269.1 9.089c-.598 0-1.076.479-1.196 1.077l-26.431 182.151z"/><path fill="url(#d)" fill-opacity=".6" d="m453.231 349.112-88.025 3.11c-3.23.119-5.861 2.511-6.339 5.741l-14.711 103.214c-.598 3.947 2.512 7.535 6.458 7.655l87.906 2.033c3.349.12 6.339-2.392 6.698-5.741 4.306-32.053 9.807-72.119 14.711-108.238.717-4.305-2.512-7.893-6.698-7.774"/><path fill="url(#e)" fill-opacity=".6" d="m368.436 346.481 87.906-3.109c3.229-.12 5.98-2.512 6.338-5.741 1.794-12.917 3.469-24.877 4.904-35.521.598-4.067-2.751-7.774-6.817-7.535l-87.787 3.588c-3.229.12-5.86 2.512-6.338 5.741l-5.024 35.043c-.598 4.066 2.632 7.654 6.818 7.534"/><path fill="url(#f)" fill-opacity=".6" d="m605.601 409.989-141.128-.957c-3.349 0-6.219 2.392-6.698 5.741-2.272 16.624-4.545 33.129-6.697 48.797a6.707 6.707 0 0 0 6.458 7.534l141.726 3.23c3.468.119 6.339-2.512 6.817-5.861l5.98-50.949c.598-3.947-2.511-7.416-6.458-7.535"/><path fill="url(#g)" fill-opacity=".6" d="m619.715 287.997-139.693 5.741c-3.229.119-5.86 2.511-6.339 5.74a43443 43443 0 0 1-13.275 96.398c-.598 3.947 2.511 7.535 6.578 7.535l140.769.957c3.349 0 6.219-2.512 6.698-5.861l12.199-102.975c.478-4.067-2.871-7.655-6.937-7.535"/><path fill="url(#h)" d="m331.479 484.5-128.69 11.242.598 5.621c.239 2.392 2.272 4.306 4.664 4.306l285.007 11.96c4.665.239 9.209 0 13.874-.718l99.985-13.873c2.392-.359 4.186-2.392 4.186-4.784v-4.545z"/><path fill="url(#i)" d="M611.222 498.373v-4.545l-2.751-.119c-.717.359-1.554.598-2.392.717l-105.726 12.2c-.359 0-.837.119-1.196 0l-295.532-11.004h-.598l.598 5.622c.24 2.392 2.273 4.305 4.665 4.305l285.007 11.96c4.664.239 9.209 0 13.873-.717l99.986-13.874c2.272 0 4.066-2.033 4.066-4.545"/><path fill="#000" d="m290.695 491.436 228.915 8.014 46.883-5.502-227.599-7.415z"/><path fill="#7E7E7E" d="m314.496 499.928.239 2.272 59.92 2.392.957-2.272z" opacity=".45"/><path fill="#2563C5" d="M396.899 277.95s-26.91-2.631-38.87-18.418c-12.08 15.668-38.87 18.418-38.87 18.418s-2.751 28.106 5.501 49.156 33.369 28.345 33.369 28.345 25.116-7.295 33.368-28.345c8.372-21.05 5.502-49.156 5.502-49.156"/><path fill="#fff" d="M347.747 324.884c-2.947-.471-5.532-3.329-5.73-6.341-.132-1.982.495-3.734 1.859-5.279.44-.481 1.649-1.369 2.221-1.62 1.067-.471 1.485-1.085 1.485-2.202 0-1.073-.407-1.599-1.694-2.19-.517-.241-1.011-.592-1.616-1.172-.473-.46-.869-.876-.869-.942s.077-.197.165-.296c.099-.109.22-.46.275-.799.121-.745.451-1.731.627-1.884.066-.055.187-.405.253-.766.066-.362.253-.909.396-1.216a5.2 5.2 0 0 0 .373-1.205c.121-.766.429-1.752.671-2.125.088-.153.286-.711.418-1.259.143-.548.297-1.051.341-1.139.143-.274 1.001-.449 2.2-.449 1.341 0 2.155.197 3.409.832 2.001 1.008 3.651 3.549 3.651 5.63 0 .591-.22 1.204-.429 1.204-.088 0-.143.154-.143.384 0 .208-.033.383-.077.383-.077 0-.385 1.27-.693 2.902-.077.362-.231.964-.363 1.347-.187.57-.297.723-.593.866-.198.087-.363.24-.363.317 0 .175 0 .175-1.067.153-1.331-.021-1.859.395-1.98 1.578-.077.744.176 1.292.781 1.719 1.012.712 1.276.997 1.276 1.38 0 .23-.066.394-.165.427-.11.044-.165.219-.165.548 0 .317-.055.514-.154.547-.088.033-.176.318-.231.734-.033.372-.143.832-.22 1.008a9 9 0 0 0-.33 1.15c-.099.449-.275 1.029-.396 1.292-.11.252-.242.657-.275.898-.044.241-.11.438-.154.438-.11 0-.462.843-.715 1.698-.285.985-.747 2.135-.846 2.135-.044 0-.088.099-.088.219 0 .405-.264 1.084-.44 1.117-.088.022-.363.011-.605-.022M363.418 310.899c0-.055.176-.197.385-.34l.385-.241v.329c0 .307-.033.328-.385.328-.209 0-.385-.032-.385-.076M357.15 307.964c0-.088-.044-.165-.11-.165-.055 0-.11-.175-.11-.383 0-.515.143-.482.484.099.352.602.352.613.011.613-.176 0-.275-.066-.275-.164"/><path fill="#fff" d="M362.022 323.592c-.858-.69-1.529-1.478-1.936-2.278-.594-1.183-.737-2.026-.737-4.359 0-1.281-.055-2.311-.154-2.825-.176-.909-.594-2.016-1-2.618-.286-.438-.264-.537.132-.537.231 0 .252-.043.252-.646 0-.799.198-1.029.638-.755.275.175.561.306 1.727.854.946.438 2.133.558 2.683.285.363-.198.858-.887.957-1.337.088-.438.019-1.207-.418-1.456-.121-.121-.484-.34-.792-.482-.791-.383-2.089-1.38-2.551-1.993-.363-.471-.396-.548-.319-1.019a10 10 0 0 1 .33-1.281c.143-.416.319-1.062.385-1.424.077-.361.275-.931.44-1.259.165-.329.341-.822.385-1.096.044-.273.121-.536.165-.602.044-.055.132-.427.198-.81.077-.384.22-.898.341-1.15.231-.482.505-1.336.615-1.895.066-.307.143-.372.748-.58 2.222-.756 4.905-.121 6.709 1.599.407.405.506.547.374.569-.132.033-.187.153-.187.46 0 .23-.044.438-.11.46-.121.033-.374.942-.616 2.212-.099.482-.286 1.106-.44 1.402a8.4 8.4 0 0 0-.44 1.15c-.099.351-.22.811-.286 1.019-.055.208-.143.558-.198.766-.044.208-.209.69-.363 1.074-.154.372-.363.963-.462 1.314-.099.339-.22.679-.275.734a3 3 0 0 0-.22.547c-.077.241-.186.504-.252.581-.066.087-.187.525-.264.985-.088.46-.198 1.117-.264 1.446-.099.613-.407 1.424-.561 1.544-.055.033-.165.427-.253.876a13.5 13.5 0 0 1-.484 1.676 15 15 0 0 0-.561 1.862c-.198.821-.671 2.212-1.221 3.548a1.5 1.5 0 0 0-.099.449c0 .11-.198.603-.44 1.084-.384.756-.439.964-.439 1.599 0 .395-.044.723-.099.723s-.341-.186-.638-.416"/><path fill="#fff" d="M364.793 324.841c-.374-.066-1.034-.307-1.485-.515-.67-.318-.846-.46-.956-.745-.077-.208-.077-.317-.011-.274.077.044.088-.076.033-.372-.066-.383-.011-.57.429-1.457.274-.547.505-1.095.505-1.204 0-.11.044-.307.099-.449.55-1.337 1.023-2.727 1.221-3.549a15 15 0 0 1 .561-1.862c.176-.482.396-1.226.484-1.675s.198-.844.253-.876c.154-.121.462-.931.561-1.545.066-.328.176-.985.264-1.445.077-.46.198-.898.264-.986.066-.077.176-.339.253-.58s.176-.482.219-.548c.055-.055.176-.394.275-.734.099-.35.308-.942.462-1.314.154-.383.319-.865.363-1.073.055-.208.143-.559.198-.767.066-.208.187-.668.286-1.018.099-.34.297-.866.44-1.15.154-.296.341-.92.44-1.402.231-1.216.484-2.158.605-2.224.055-.043.066-.262.022-.525-.066-.351-.055-.471.066-.515.231-.088.275-.077.198.044-.033.066 0 .109.099.109.253 0 .88.8 1.308 1.676 1.001 2.015 1.001 4.271 0 6.265-.275.525-.395.711-.945 1.401-.396.504-1.584 1.402-2.42 1.818-1.045.537-1.386.964-1.473 1.895-.055.613-.022.8.186 1.227.264.547.561.799 1.518 1.281.341.175.715.394.836.482.187.142.187.164.022.339-.33.329-.506.647-.605 1.15-.099.482-.363 1.271-.638 1.928-.077.186-.143.416-.143.504 0 .098-.066.306-.154.482-.308.602-.396.865-.66 1.883-.154.559-.351 1.139-.45 1.282a1.3 1.3 0 0 0-.165.58c0 .186-.044.438-.099.581-.066.142-.132.427-.176.646-.033.219-.154.515-.275.646s-.242.35-.275.482c-.044.12-.143.394-.231.591-.253.548-.011 1.117.462 1.117.209 0 .264.055.264.274 0 .263-.022.274-.682.263a9 9 0 0 1-1.353-.142"/><path fill="#fff" d="M365.959 324.873c-.011-.098-.121-.262-.253-.361-.143-.099-.198-.164-.132-.131.088.043.11-.11.066-.471-.033-.34.011-.657.121-.898.099-.208.198-.482.242-.603.033-.131.154-.35.275-.482.121-.131.242-.427.275-.646.044-.219.11-.504.176-.646.055-.142.099-.394.099-.569 0-.176.11-.493.242-.712.132-.23.242-.603.242-.876.011-.285.044-.417.099-.351.054.077.076.011.044-.164-.022-.186-.001-.274.065-.23s.088 0 .044-.11c-.033-.109-.022-.186.033-.186.066 0 .11-.077.11-.164 0-.164.033-.252.363-.909.099-.208.187-.438.187-.537 0-.087.066-.317.143-.504.286-.657.539-1.445.638-1.938.055-.274.198-.624.319-.789.154-.208.176-.306.077-.339-.066-.033 0-.066.154-.066.594-.022 1.903 1.227 2.595 2.464.627 1.117.803 1.84.803 3.33 0 1.051-.055 1.522-.22 2.059-.781 2.475-3.09 4.49-5.553 4.851-.418.055-.671.055-.693-.011-.055-.153-.429-.131-.495.033-.044.077-.066.066-.066-.044"/><path fill="#fff" d="M365.739 322.354c0-.098.066-.24.154-.317.11-.099.165-.099.165-.011 0 .066-.044.12-.099.12s-.132.088-.154.198c-.044.153-.055.153-.066.01M371.854 304.426c-.121-.022-.187-.12-.165-.219.044-.219.527-.328.527-.109 0 .241-.154.372-.362.328M372.535 302.871c-.11-.066-.154-.208-.121-.471.033-.307.077-.372.253-.328.253.065.286.251.044.251-.187 0-.22.187-.044.241.066.022.11.121.088.219-.033.132-.088.154-.22.088M351.156 324.293c-.165-.12-.187-.241-.132-.734.154-1.303.286-1.949.495-2.409.121-.263.297-.822.407-1.249.099-.416.275-.92.396-1.106.11-.186.275-.624.363-.986.209-.898.627-2.113.847-2.518.154-.285.176-.515.132-1.238-.077-1.095.066-1.161.714-.307.913 1.194 1.232 2.125 1.309 3.823.088 1.839-.132 2.77-.979 4.172-.473.767-1.693 1.928-2.496 2.355-.748.394-.77.405-1.056.197M357.92 311.052c-.374-.668-1.386-1.61-2.178-2.026-.693-.372-.891-.679-.429-.679.231 0 .275-.088.396-.602.077-.329.187-.603.242-.603s.099-.098.099-.219c0-.186.077-.219.473-.219.418 0 .473.033.616.362.352.788 1.353 1.993 2.067 2.464l.264.164-.253.121c-.22.109-.253.208-.253.81 0 .668-.055.756-.428.69-.044-.011-.154.033-.22.088-.099.087-.209-.011-.396-.351M360.482 304.996c-.968-1.38-1.463-3.582-1.144-5.224.165-.887.803-2.289 1.353-3.012.858-1.106 2.826-2.464 3.233-2.234.154.087.154.109.011.164-.088.033-.198.252-.231.482a9 9 0 0 1-.627 1.96c-.12.252-.263.767-.34 1.15-.066.384-.154.756-.198.811-.044.065-.121.328-.165.602s-.22.767-.385 1.095c-.165.329-.385.986-.484 1.457-.088.471-.231.953-.297 1.073-.055.121-.198.624-.308 1.106l-.187.887z"/><path fill="#fff" d="M348.055 324.917c-.187-.065-.187-.361 0-.361.143 0 .407-.712.407-1.095 0-.121.044-.219.088-.219.099 0 .561-1.15.847-2.136.253-.854.604-1.698.714-1.698.044 0 .11-.197.154-.438.033-.241.165-.646.275-.898.121-.263.297-.843.396-1.292a9 9 0 0 1 .33-1.15c.077-.175.187-.635.22-1.008.055-.416.143-.7.231-.733.099-.033.154-.23.154-.548 0-.339.055-.504.176-.548.154-.054.143-.109-.11-.361-.154-.153-.286-.35-.286-.427 0-.307.264-.263.913.164.825.548 1.726 1.314 1.54 1.325-.176 0-.187.614-.022.712.153.099.033.865-.231 1.424-.253.515-.693 1.862-.88 2.628-.066.307-.22.701-.33.877-.11.186-.286.679-.385 1.095-.11.427-.286.985-.407 1.248s-.264.8-.319 1.194-.132.821-.165.964c-.055.208-.011.285.22.383.396.186.363.263-.165.471-1.023.405-2.848.646-3.365.427M354.565 308.489c-.941-.343-.868-.295-1.121-.361-.286-.077-.473-.186-.473-.274 0-.087.055-.164.11-.164.066 0 .11-.066.11-.153 0-.077.165-.23.363-.318.297-.142.407-.296.593-.865.253-.734.374-1.26.407-1.72.044-.471.55-2.475.638-2.508.055-.022.088-.208.088-.416 0-.219.055-.372.143-.372.165 0 .407-.504.407-.854 0-.187.055-.252.198-.22.165.033.187.22.209 1.928.011 1.982.198 3.308.572 4.129.374.81.374.81-.055.745-.33-.055-.374-.033-.374.175 0 .12-.044.23-.099.23s-.154.263-.231.58c-.198.865-.231.953-.33.953-.174 0-.213-.171-1.155-.515M359.272 300.626c0-.241.022-.329.044-.186a1.5 1.5 0 0 1 0 .438c-.033.098-.055-.011-.044-.252M343.359 305.116c-.374-.493-.759-1.248-1.067-2.135-.198-.581-.253-.942-.253-2.027 0-1.467.077-1.774.825-3.252.792-1.577 2.496-2.968 4.19-3.428l.517-.143-.198.395c-.11.23-.319.843-.451 1.391-.143.547-.341 1.106-.429 1.259-.242.372-.55 1.358-.671 2.125-.055.35-.22.887-.374 1.204a6 6 0 0 0-.395 1.216c-.066.362-.187.712-.253.767-.176.153-.506 1.139-.627 1.873-.055.328-.198.722-.308.865l-.22.274z"/><path fill="#fff" fill-opacity=".3" d="M391.398 327.106c8.252-21.05 5.501-49.156 5.501-49.156s-26.91-2.631-38.87-18.418v95.919s25.116-7.295 33.369-28.345" opacity=".45"/><path stroke="#8DB9FF" stroke-miterlimit="10" stroke-width="2.94" d="M358.028 352.342c-4.306-1.436-23.8-8.97-30.618-26.312-6.578-16.625-5.98-38.272-5.501-45.448 6.697-1.077 24.996-4.785 36.119-16.386 11.003 11.601 29.422 15.429 36.119 16.386.479 7.056 1.077 28.704-5.501 45.448-6.818 17.342-26.312 24.757-30.618 26.312Z"/><path fill="#A8A8A8" d="M312.82 297.924c-.957 0-1.674.598-1.913 1.435h-9.568a6.177 6.177 0 0 1-6.22-6.219v-40.066a1.94 1.94 0 0 0 1.436-1.914c0-1.076-.838-2.033-2.034-2.033-1.076 0-2.033.837-2.033 2.033 0 .837.598 1.674 1.435 1.914v40.066a7.25 7.25 0 0 0 7.296 7.295h9.568a1.94 1.94 0 0 0 1.914 1.435c1.076 0 2.033-.837 2.033-2.033s-.837-1.913-1.914-1.913M403.597 130.364c-.837 0-1.674.598-1.913 1.435h-3.708a7.25 7.25 0 0 0-7.295 7.296v37.674a6.177 6.177 0 0 1-6.22 6.219h-9.328a1.94 1.94 0 0 0-1.914-1.435c-1.076 0-2.033.837-2.033 2.033s.837 2.033 2.033 2.033c.837 0 1.674-.598 1.914-1.435h9.328a7.25 7.25 0 0 0 7.296-7.296v-37.674a6.177 6.177 0 0 1 6.219-6.219h3.708a1.94 1.94 0 0 0 1.913 1.435c1.077 0 2.034-.837 2.034-2.033s-.957-2.033-2.034-2.033M511.477 190.762v-51.667a7.25 7.25 0 0 0-7.296-7.296h-16.266a1.94 1.94 0 0 0-1.913-1.435c-1.077 0-2.033.837-2.033 2.033 0 1.077.837 2.033 2.033 2.033.837 0 1.674-.598 1.913-1.435h16.266a6.177 6.177 0 0 1 6.219 6.219v51.668a1.94 1.94 0 0 0-1.435 1.913c0 1.077.837 2.033 2.033 2.033 1.076 0 2.033-.837 2.033-2.033-.239-1.076-.837-1.794-1.554-2.033M443.545 395.517c-.838 0-1.675.598-1.914 1.436h-21.408a7.25 7.25 0 0 0-7.296 7.295v5.502a6.177 6.177 0 0 1-6.219 6.219h-37.435a1.94 1.94 0 0 0-1.914-1.435c-1.076 0-2.033.837-2.033 2.033s.837 2.033 2.033 2.033c.838 0 1.675-.598 1.914-1.435h37.435a7.25 7.25 0 0 0 7.295-7.296v-5.621a6.177 6.177 0 0 1 6.22-6.219h21.408a1.94 1.94 0 0 0 1.914 1.435c1.076 0 2.033-.837 2.033-2.033s-.957-1.914-2.033-1.914M550.107 338.109c0-1.076-.838-2.033-2.034-2.033-1.076 0-2.033.837-2.033 2.033a1.94 1.94 0 0 0 1.435 1.914v50.71a6.176 6.176 0 0 1-6.219 6.219h-14.471a1.94 1.94 0 0 0-1.914-1.435c-1.076 0-2.033.837-2.033 2.033s.837 2.034 2.033 2.034c.837 0 1.674-.598 1.914-1.436h14.471a7.25 7.25 0 0 0 7.296-7.295v-50.711c.957-.478 1.555-1.196 1.555-2.033M427.757 244.941a1.94 1.94 0 0 0-1.914 1.435h-4.425a7.25 7.25 0 0 0-7.296 7.296v41.381c0 3.469-2.75 6.22-6.219 6.22h-2.392a1.94 1.94 0 0 0-1.913-1.436c-1.077 0-2.034.838-2.034 2.034s.838 2.033 2.034 2.033c.837 0 1.674-.598 1.913-1.435h2.392a7.25 7.25 0 0 0 7.296-7.296v-41.382a6.177 6.177 0 0 1 6.219-6.219h4.425a1.94 1.94 0 0 0 1.914 1.435c1.076 0 2.033-.837 2.033-2.033-.12-1.196-.957-2.033-2.033-2.033M239.864 366.454v-6.338a7.25 7.25 0 0 0-7.296-7.296h-13.036a6.177 6.177 0 0 1-6.219-6.219v-2.512a1.94 1.94 0 0 0 1.435-1.913c0-1.077-.837-2.034-2.033-2.034s-2.033.838-2.033 2.034c0 .837.598 1.674 1.435 1.913v2.512a7.25 7.25 0 0 0 7.295 7.295h13.037a6.177 6.177 0 0 1 6.219 6.22v6.338a1.94 1.94 0 0 0-1.435 1.914c0 1.076.837 2.033 2.033 2.033s2.033-.837 2.033-2.033c0-.837-.598-1.674-1.435-1.914M222.762 192.317c-.837 0-1.674.598-1.913 1.435h-19.974a7.25 7.25 0 0 0-7.295 7.296v59.68a1.94 1.94 0 0 0-1.435 1.914c0 1.076.837 2.033 2.033 2.033s2.033-.837 2.033-2.033c0-.838-.598-1.675-1.435-1.914v-59.68a6.177 6.177 0 0 1 6.219-6.22h19.973a1.94 1.94 0 0 0 1.914 1.436c1.076 0 2.033-.838 2.033-2.034s-1.076-1.913-2.153-1.913"/><path fill="#fff" d="M365.086 102.856H228.861V245.18h136.225z"/><path fill="#000" d="M365.086 102.856H228.861v13.036h136.225z"/><path fill="#87A9DF" d="M365.086 102.856H228.861v6.578h136.225z" opacity=".45"/><path fill="#fff" d="M361.258 109.075c0 2.153-1.674 3.827-3.827 3.827s-3.827-1.674-3.827-3.827 1.674-3.827 3.827-3.827c2.033 0 3.827 1.674 3.827 3.827M344.753 112.902a3.826 3.826 0 1 0 .001-7.653 3.826 3.826 0 0 0-.001 7.653M336.024 109.075c0 2.153-1.675 3.827-3.828 3.827s-3.827-1.674-3.827-3.827 1.675-3.827 3.827-3.827 3.828 1.674 3.828 3.827"/><path fill="#8EA8D2" d="M352.168 193.393H241.777c-2.153 0-3.947-1.794-3.947-3.947v-62.909c0-2.153 1.794-3.947 3.947-3.947h110.391c2.153 0 3.947 1.794 3.947 3.947v62.909c0 2.153-1.794 3.947-3.947 3.947"/><path fill="#5E77A0" d="M356.115 189.446v-51.667c-3.229.359-6.458 1.196-9.448 2.272-15.19 5.502-29.302 16.266-45.448 15.548-12.439-.478-23.322-7.774-34.326-13.754-8.97-4.903-19.375-8.97-29.182-7.893v55.375c0 2.152 1.794 3.946 3.947 3.946h110.391a3.837 3.837 0 0 0 4.066-3.827" opacity=".6"/><path fill="#5E77A0" d="M353.962 152.61c-9.329-.718-18.538 1.674-27.508 4.544-8.97 2.871-17.821 6.1-27.03 7.176a56.5 56.5 0 0 1-19.016-1.076c-8.133-1.914-15.787-5.502-23.92-7.415-6.1-1.435-12.797-1.914-18.658 0v33.727c0 2.153 1.794 3.947 3.947 3.947h110.391c2.153 0 3.947-1.794 3.947-3.947v-36.478c-.718-.239-1.436-.359-2.153-.478" opacity=".6"/><path fill="url(#j)" fill-opacity=".4" d="M344.753 168.995c-.718-1.196-23.083 13.634-23.083 13.634s-16.385-13.036-18.06-13.634-19.495 16.504-19.495 16.504l-20.571-13.754-25.714 7.416v10.285c0 2.153 1.794 3.947 3.947 3.947h110.391c2.153 0 3.947-1.794 3.947-3.947v-12.558c-5.622-3.707-11.004-7.295-11.362-7.893"/><path fill="#fff" d="M326.932 146.271c0 4.066-3.349 7.415-7.415 7.415-4.067 0-7.415-3.349-7.415-7.415 0-4.067 3.348-7.416 7.415-7.416 4.186 0 7.415 3.23 7.415 7.416"/><path fill="#D9D9D9" d="M308.635 199.373h-70.803v6.817h70.803z"/><path fill="#D9D9D9" d="M291.174 209.659h-53.342v3.348h53.342z" opacity=".45"/><path stroke="url(#k)" stroke-miterlimit="10" stroke-width=".941" d="m351.331 214.323-7.534-4.664-7.535 4.664v-13.036c0-1.077.837-1.914 1.913-1.914h11.123a1.89 1.89 0 0 1 1.914 1.914v13.036z"/><path fill="#D9D9D9" d="M356.117 223.413H237.832v2.751h118.285zM347.984 228.436H237.832v2.751h110.152zM330.522 233.459h-92.69v2.751h92.69z"/><path fill="#F28EE8" d="M237.712 164.569h-24.399c-2.152 0-3.827-1.674-3.827-3.827v-24.398c0-2.153 1.675-3.827 3.827-3.827h24.399c2.153 0 3.827 1.674 3.827 3.827v24.398c0 2.153-1.674 3.827-3.827 3.827"/><path fill="#fff" d="m222.641 155.36-5.98-4.664c-.717-.598-.837-1.555-.358-2.273.598-.717 1.554-.837 2.272-.358l3.947 2.99c.717.478 1.674.478 2.272-.24l7.894-8.73c.598-.718 1.674-.718 2.392-.12.717.598.717 1.674.119 2.392l-10.285 10.884c-.718.478-1.675.598-2.273.119M445.099 168.995c-19.136 0-34.804-15.548-34.804-34.804 0-19.136 15.548-34.803 34.804-34.803 19.255 0 34.803 15.547 34.803 34.803s-15.548 34.804-34.803 34.804"/><path fill="#99D5FF" d="M445.099 165.646c17.306 0 31.335-14.029 31.335-31.335s-14.029-31.335-31.335-31.335-31.335 14.029-31.335 31.335 14.029 31.335 31.335 31.335"/><path fill="#FFF9FF" d="M468.062 140.889h-46.166c.12-4.545 5.741-8.492 10.166-7.535-1.315-3.827-.119-8.492 2.99-11.123s7.894-3.11 11.482-1.196 5.741 6.219 5.262 10.286c2.273-1.794 6.339-.359 6.818 2.511 2.033-1.315 5.023-1.196 6.936.359 2.034 1.555 3.349 4.425 2.512 6.698"/><path fill="#fff" d="M197.526 339.066c-19.136 0-34.803-15.548-34.803-34.804 0-19.255 15.548-34.803 34.803-34.803 19.136 0 34.804 15.548 34.804 34.803 0 19.256-15.668 34.804-34.804 34.804"/><path fill="#99D4FF" d="M197.527 335.598c17.306 0 31.335-14.03 31.335-31.336s-14.029-31.335-31.335-31.335-31.336 14.029-31.336 31.335 14.03 31.336 31.336 31.336"/><path fill="url(#l)" d="m197.527 307.013-18.777 14.352c.239.12.478.239.718.239h36.119c.239 0 .478-.119.717-.239z"/><path fill="#7E7E7E" d="M199.201 285.605c-.957-.718-2.392-.718-3.349 0l-17.461 13.275v15.429h38.152V298.88z"/><path fill="url(#m)" d="M211.64 316.581h-28.226c-.837 0-1.555-.718-1.555-1.555v-25.953c0-.837.718-1.555 1.555-1.555h28.226c.837 0 1.555.718 1.555 1.555v25.953c0 .957-.718 1.555-1.555 1.555"/><path fill="url(#n)" d="M211.64 316.581h-28.226c-.837 0-1.555-.718-1.555-1.555v-25.953c0-.837.718-1.555 1.555-1.555h28.226c.837 0 1.555.718 1.555 1.555v25.953c0 .957-.718 1.555-1.555 1.555"/><path fill="url(#o)" d="M195.852 298.521h-2.751c-.239 0-.478-.239-.478-.478s.239-.479.478-.479h2.751c.239 0 .479.24.479.479-.12.239-.24.478-.479.478"/><path fill="url(#p)" d="M196.211 297.206c-1.674-.12-2.512-1.794-2.512-1.794-.119-.239 0-.479.24-.598.239-.12.478 0 .598.239 0 0 .598 1.196 1.794 1.316.239 0 .358.239.358.478-.119.239-.239.359-.478.359"/><path fill="url(#q)" d="M194.058 301.392h-.239c-.239-.12-.239-.359-.239-.598 0-.12.837-1.675 2.512-1.794.239 0 .478.119.478.359 0 .239-.12.478-.359.478-1.196.12-1.794 1.316-1.794 1.316-.119.119-.239.239-.359.239"/><path fill="url(#r)" d="M201.952 298.521h-2.751c-.239 0-.478-.239-.478-.478s.239-.479.478-.479h2.751c.239 0 .478.24.478.479s-.239.478-.478.478"/><path fill="url(#s)" d="M198.963 297.206c-.239 0-.359-.12-.479-.359 0-.239.12-.478.359-.478 1.196-.12 1.794-1.316 1.794-1.316.12-.239.359-.239.598-.239.239.119.239.359.239.598 0 0-.837 1.555-2.511 1.794"/><path fill="url(#t)" d="M201.115 301.392c-.119 0-.359-.12-.359-.239 0 0-.598-1.196-1.794-1.316-.239 0-.358-.239-.358-.478 0-.24.239-.359.478-.359 1.674.119 2.512 1.794 2.512 1.794.119.239 0 .478-.24.598z"/><path fill="url(#u)" d="M198.484 294.933c0 .598-.479 1.196-1.196 1.196-.598 0-1.196-.478-1.196-1.196 0-.598.478-1.196 1.196-1.196.717 0 1.196.598 1.196 1.196"/><path fill="url(#v)" d="M200.396 298.043c0 1.794-1.196 3.11-2.751 3.11s-2.75-1.436-2.75-3.11c0-1.794 1.196-3.11 2.75-3.11 1.436 0 2.751 1.436 2.751 3.11"/><path fill="#F5F5F5" d="M199.201 310.721a2.69 2.69 0 0 1-3.23 0L178.51 298.88v21.289c0 .718.598 1.316 1.315 1.316h35.402c.718 0 1.316-.598 1.316-1.316V298.88z"/><path fill="#fff" d="m197.527 307.013-18.777 14.352c.239.12.478.239.718.239h36.119c.239 0 .478-.119.717-.239z"/><path fill="#F28EE8" d="M197.527 289.791a8.014 8.014 0 1 0 .001 16.027 8.014 8.014 0 0 0-.001-16.027m-6.817 8.013a6.94 6.94 0 0 1 6.936-6.937c1.675 0 3.23.598 4.426 1.674l-9.688 9.688c-1.076-1.196-1.674-2.751-1.674-4.425m6.817 6.817c-1.675 0-3.229-.598-4.425-1.674l9.687-9.688c1.077 1.196 1.675 2.751 1.675 4.425 0 3.947-3.11 6.937-6.937 6.937"/><path fill="#fff" d="M483.61 432.234c-19.136 0-34.803-15.548-34.803-34.803 0-19.136 15.548-34.804 34.803-34.804 19.136 0 34.804 15.548 34.804 34.804 0 19.255-15.548 34.803-34.804 34.803"/><path fill="#99D4FF" d="M483.611 428.766c17.306 0 31.335-14.029 31.335-31.335s-14.029-31.335-31.335-31.335-31.336 14.029-31.336 31.335 14.03 31.335 31.336 31.335"/><path fill="url(#w)" d="M504.061 392.527c2.751 11.243-4.186 22.605-15.428 25.355s-22.604-4.186-25.355-15.428 4.186-22.604 15.428-25.355 22.605 4.186 25.355 15.428"/><path fill="url(#x)" d="M478.109 377.338c.239 0 .359-.12.359-.12h.239-.239c-.12 0-.359.12-.359.12m.12-.12h.119zm-.479.12h.24c-.24.12-.598.12-.838.239zm.838 2.272-.12.12c-.12 0 .12 0 .12-.12m-.12.24h.12c.119 0 .119-.12-.12 0 .12 0 .12-.12 0 0m5.023-.598c.12 0 .12.119 0 0m-4.545-1.914h.12c0-.12-.12-.12-.12 0m4.186 1.555h.12zm-.119.119q.179 0 0 0c.119 0 .119 0 .239-.119-.12 0-.12 0-.239.119.119 0 .119-.119 0 0m-4.665 1.436s.12 0 .24-.24c.119-.119 0-.119-.12-.119s-.12 0-.239.119l-.12.24s.12.119.239 0m-.239-.479s.12 0 .359-.119c-.12-.12-.359 0-.359.119m2.99.837h-.119c0-.119 0-.119.119 0q0-.179 0 0c-.119-.119-.119-.119-.119-.239h-.12l-.12.12c0-.12 0-.12.12-.12h-.478c0-.119.119-.119.119-.119-.119-.12-.239 0-.239 0v-.12h-.239.359v-.12c-.12 0-.12 0-.24-.119h.24v-.12l-.12-.119-.239.119s.119 0 .119-.119l-.119-.12h-.359.12-.12.12v-.12h-.359l.119-.119h-.119s.119 0 .119-.12h-.119l-.12-.119c-.239 0-.359.119-.359.239-.119 0-.119.119-.239.119l.12-.119s.119-.12.239-.12v-.119s-.598 0-1.076.358h.119s-.239 0-.239.12 0 .12-.12.12v-.24l.24-.119.239-.12.119-.119s.24-.12.359-.12h-.119c-.24 0-1.436.359-1.436.718h-.119l-.12.119v.12h.239v.119h.838v-.119h.239l.119-.12h.12l-.12.12h.12s.12 0 .12.119c0 0-.12.12-.24.12-.119 0-.119 0-.119.12h.239v.239h.12c.239.239-.24.598-.598.717-.24.12 0 .24 0 .24-.12.119-.359.119-.479.119 0 0 0 .12-.119.12-.12-.12-.12-.12-.24-.12 0 0-.239.12-.358.359h.239c.119 0 .119 0 .239-.12l.12.12h.119l.12.12v.119l.119-.119h.12v.119h.239c.12 0 .12 0 .12.12 0 0-.12 0-.239.119 0 .12 0 .12.119.12 0 .12.12 0 .12 0h.119l.12.12h.12c0 .119.239.119.239.119l.239.12c.12-.12 0-.239-.12-.359 0 0-.119 0-.239-.12 0-.119-.119-.119 0-.239.12 0 .239.239.359.239l.12.12v.12-.479h-.12v-.119l-.12-.12h-.119v-.598.12h.119v-.24h.12c0-.119.12 0 .12 0s0 .12.119.12v.12h.12l.119.119v.239h.12l.12.12c.119 0 .119-.239.239-.239h.119l.12-.12v-.119h.12c.119 0 .119 0 .119-.12.837-.718.598-.718.598-.718m-2.751-1.196h-.119v.12c-.12 0 .119-.12.119-.12m-.837-1.794-.239.12s.12 0 .239-.12c-.119.12-.119 0 0 0m.479.12q0-.18 0 0c0-.12.119-.12 0 0q0-.18 0 0c.119 0 .119-.12.239-.12l.239-.119h.12-.479l-.119.119h.119s-.119 0-.239.12zs.119 0 .119-.12h-.119l-.359.12c.119-.12.119-.12.359 0 0-.12-.12-.12-.12-.12h-.359c.239.12.359.12.479.12m-1.436.12c0-.12.12-.12 0 0 .12 0 .24 0 .24-.12h.119c.12 0 .12 0 .598-.239h.239-.358.119c.12-.12.239-.12.479-.239 0 0-.359.119-.479.119-.119 0-.119 0-.239.12h-.359c.239-.12.239-.12.359-.12h-.12s.12 0 .12-.119l-.239.119h-.12s-.239 0-.239.12h.12c-.12.119-.24 0-.359.119-.12 0-.12 0-.239.12h.119c.12 0 .12 0 .239.12l-.119-.12h.359c-.12-.12-.12-.12-.24.12q0-.18 0 0l.12-.12h.239-.119c-.12 0-.12 0-.24.12h-.358zm.838.119h-.359s-.12.12-.12 0h-.239c-.12 0-.12 0-.12.12-.119.119-.239.119-.239.119 0-.119.12-.119.12-.119-.12 0-.12 0-.239.119-.12 0-.12.12-.12.12h.12l-.12.12-.12.239c.12 0 .12 0 .12-.12 0 0 0-.119.12-.119l-.12.119h.12c.119 0 .239 0 .598-.239 0 0 .119 0 .119-.12-.119 0-.119.12-.119.12h-.12l.12-.12h-.12c.12.12.598-.119.718-.239q-.18.18 0 0m-3.349.837c.239-.119.478-.239.837-.358.239-.12.478-.12.718-.24.119 0 .119-.119.239-.119h-.239.119-.119s.119 0 .119-.12a4.4 4.4 0 0 0-1.674.837q0-.179 0 0h-.12s-.119 0-.119.12c0-.12.119-.12.239-.12m-.718.718q.18 0 0 0c0 .12-.119.12-.119.239h.239s.359-.119.478-.119c.12 0 .12-.12.239-.12-.119 0-.119 0-.119.12v.119h.119c.12 0 .359 0 .479-.239h-.12s.12 0 .12-.12c.119 0 .119-.119.239-.119l.12-.12.119-.119v-.12H475l.119-.12c.12 0 .12-.119.239-.119l.479-.359s.478-.12.478-.239c-.239 0-.359.119-.359.119l-.119.12.119-.12h-.119c-.359.12-.598.359-.837.479l.239-.12c.119-.119.119-.119.239-.119 0 0-.12 0-.12.119l-.119.12h-.12l.239-.12v-.119c-.119 0-.119.119-.239.119H475c.119 0 .239-.119.358-.119l.12-.12c-.12 0-.239.12-.359.12l-.478.239c-.239.119-.359.119-.359.239h.12l-.12.12h.239-.119c-.359.119-.479.119-.479.239h.239l-.119.119h-.239c-.479-.119-.479 0-.479.12q0-.18 0 0m2.153 0 .12-.12zc.12-.12 0-.12 0 0v-.12c-.12 0-.12 0-.239.12 0 0-.12.12-.239.12 0 0-.12 0-.12.119h.239c.12 0 .12-.119.12-.119.119 0 .239 0 .239-.12q0 .18 0 0c.12-.12 0-.12 0 0m2.153-2.272q-.18 0 0 0m1.076 2.87.12.12c.119-.12.119-.12-.12-.12.12-.12 0-.12 0 0m.12-.359q-.18.18 0 0c-.12.12 0 .12 0 0m-1.794-2.392-.239.12c-.24.119-.24.119-.359.119.359-.119.359-.119.598-.239m1.435.239q-.18 0 0 0h-.359c-.119 0-.119 0-.119.12h.119l.12-.12c0 .12.119.12.239 0m-1.316 4.067q.18 0 0 0h.12v-.12zc.12-.12 0-.12 0 0m17.342 3.588c-.119 0-.119.119 0 0m.12-.12c0 .12 0 .12.12.239h.119-.119c0-.239 0-.239-.12-.239m.359.718q-.18 0 0 0m-.479-.718c-.119 0 0 .12 0 0m.718-.957c0 .12.12.12 0 0 .12 0 .12.12 0 0v-.119l-.12-.12v.12zm-.239.479q.179 0 0 0c.119 0 .119 0 .119.119v-.119zc.119 0 .119-.12 0 0q.179-.18 0 0m.239 1.315q0-.179 0 0v-.119c-.12 0-.12 0 0 .119l-.12-.119v.119c-.119 0 0 .12.12 0m-.837-.956c.119 0 .119.119 0 0 .119.119.119 0 .119 0v-.24h-.119zm-12.558 2.87c-.12-.12-.12-.239 0-.239l.119-.12-.119-.119s-.12 0-.12-.12c0 0-.119.12-.239.12h-.12v-.12h-.239c0-.12.12-.12.12-.239h-.239c-.12 0-.12.119-.24.239l.12-.359c.12-.119.239-.119.239-.239v-.12c.12 0 .12 0 .12-.119h-.12s-.119 0-.119.119c-.12 0-.12.12-.12.24-.12 0-.12 0-.12.119l-.239.239v.12l-.119.12-.12.119s0 .12-.12.12l-.119.119h.119c0 .12-.239.12-.239.359h1.077v.12l.119.119s-.119 0-.119.12h.239l.119-.12s.12 0 .12-.119h.12v.119h.119s0 .12.12.12c0 0 .119 0 .119-.12v-.119l.12-.12v-.119h-.12c.12-.12.12-.12 0-.24-.119 0-.119 0-.119.12v.12s-.12 0-.12-.12c-.119.239 0 .12.12 0m22.365 11.96s-.12 1.914-.359 2.751v.598c-.119.598-.239.717-.239.717 1.196-3.588 1.435-7.654.478-11.72-.956-3.708-2.75-6.937-5.142-9.449l-.24-.239v.12c.12.119.359.239.479.478-.12 0-.718-.598-.718-.598l-.717-.598h-.12c.239.12.478.359.718.478-.479-.478-.957-.837-1.436-1.196-.119 0-.119-.119-.239-.119h-.119l-.24-.239h-.119l-.12-.12c0-.12-.239-.239-.478-.359l.119.12c-.119-.12-.239-.239-.358-.239 0 .119.119.119.239.239l-.239-.12.239.239a.256.256 0 0 1-.239-.239c0 .12.119.239.119.239h-.119l.119.12.12.12-.12-.12c0 .12 0 .12.239.239l.12.12c-.12 0-.239-.12-.239-.12s.119.239.239.359c.12 0 .12 0 .12.12h-.12c.239.598.239.598.359.717 0 .12 0 .12.119.12l.12.239c0 .12.12.12.12.239v.239c0 .12 0 .12.119.24l-.119-.12c0 .12 0 .12.119.239v.239c0 .12 0 .12.239.718.12.239.24.359.359.478.12.12.12.359.239.479.359.239.359.119.479 0 0-.12 0-.12.119-.239 0-.12-.119-.12-.119-.24l.359.359 1.076 1.555h.12v-.239h.119v-.12s0 .12.12.12c0-.12 0-.239-.12-.479v.12l-.359-.718.12-.119c.12-.12-.12-.359-.12-.359l-.956-1.076c0-.12 0-.12-.12-.24 0-.358 0-.358-.478-1.076h.119c.12 0 .12 0 .359.359h-.12c0 .119.12.239.12.359 0 .119.12.358.12.358.239.359.598.957 1.196 1.436.119 0 .119 0 .119-.12v-.12h.12c.119 0 .359.24.359.24v.119c-.12 0-.12 0-.24-.119l-.119.119.478.718c.12.119.12.239.12.239s-.12 0-.359-.239c0 .239.12.359.12.478v.239l.119.359s0 .12-.119.12v.119c-.12 0-.12 0-.24-.119l-.119-.12-.359.359-.359-.359c-.119 0-.119.12-.239.239 0 0 0-.119-.12-.119-.239 0-.358-.479-.478-.718 0 0 .12 0 .12-.119l-.359-.718v.12c-.12.119-.359.239.239.837v.119l.12.24.119.119v.239c-.119 0-.119-.119-.239-.119v.119h-.239c0 .12 0 .12-.12.598v.12l-.119.12v.119c-.24.12-.24.12-.12.359l-.12.12v.239l-.598-.12c0 .12.12.239.24.479-.359-.12-.718-.12-.718-.12l-.12.12c.12.598 1.077.717 1.077 1.435 0 0 .119.598 0 .717-.479.12-.837-.119-1.316-.119l-.359-.12-.119.12c-.12 0-.12 0-.239.119l.119.359c.12.479 0 .957 0 1.435.12.12.12.12.12.598.119 0 .239 0 .359.12.119-.12.119-.12.358 0 .12.359.24.359.24.359l.717-.239h.12c.119-.24.119-.24.478-.718-.119-.478-.119-.478 0-.837l.12-.12h.119c.12-.119.24-.119.359-.239h.12c.119-.239-.239-.478 0-.598.119 0 .119 0 .598.239.119-.119.119-.239.239-.359h.12v-.119c.239 0 2.033 1.794 1.913 2.751h.12c.119-.24 0-.598 0-.838h.119c0 .12 0 .12.24.24 0-.12 0-.12-.24-.479l-.239-.239v-.239c-.359-.12-.957-1.077-.957-1.555h.12v-.12h.12v.12c0 .12.119.12.119.239v-.119h.12v.119c.119.12.478.718.478.718.239.119.239.119.239.239l.12.12c.12.119.12.119.239.358 0 .12 0 .24.12.359v.12s.119.119.119.239v.12c.12.239.12.598.24.837v.239l.119.12-.119-.359v.119l.119-.119c0-.12-.119-.12-.119-.239v-.12l.119.12.12.119c0-.119 0-.119-.12-.239v-.12s-.359-.598-.359-.837l.12.12h.12v-.239h.119v.119-.119c.12 0 .12.119.239.119l.12-.119h.12v-.12c-.12-.12-.12-.239-.24-.359-.119-.239 0-.478-.119-.717 0-.24-.12-.359 0-.479v-.717c.119.119.119.239.239.239h.12l.119.478v.12c0-.12.12-.12.12-.239-.239-.718-.239-.718-.12-.838l.12.12c0 .12 0 .239.119.239.12.598.12.598.479 1.435 0 .12 0 .12.119.24 0 .119 0 .119.12.239v.239c-.12 0-.12 0-.359-.359v-.119h-.239c0 .239 0 .239-.12.358h-.119c-.12.12-.12.12-.12.24h-.239s-.12.358 0 .358c0 .12 0 .12.12.359v.239c0 .12 0 .12.239.598.119 0 .119 0 .119.24h.12v-.24h.12c0 .12.119.24.119.24h.12v-.359 2.99-.718h-.12s-.119-.119-.119-.239h-.12c0 .12-.12.12-.12.239l-.239-.239h-.119v-.12s0-.119-.12-.119l-.359-.359h-.119c-.24.359-.24.359-.24.478v.359l-.119.12h-.12c-.119-.12-.119-.239-.359-.359-.239-.12-.239-.12-.358-.598-.12 0-.24-.12-.359-.239-.239 0-.239 0-.359-.239l-.12-.12h-.119l-.12-.12c.12-.119.239-.239.239-.478-.119-.239 0-.478-.119-.718l-.12.12-.119-.239h-.12s-.12.119-.239.119c0 0-.12 0-.12-.119h-.239c-.12 0-.12.119-.239.119h-.479c-.358 0-.717.24-1.076.359 0 0-.12.12-.12.239v.12c-.119 0-.119-.12-.239-.12v-.119h-.359c-.119-.12-.119-.12-.358-.239-.12.239-.12.478-.24.598l-.239.239h-.239c-.359.598-.478 1.315-.837 1.794-.12.119-.359.239-.479.239-.119 0-.119.12-.239.12 0 .119-.119.239-.119.239l-.12.119-.12.12c-.119.12-.119.12-.239.359l-.119.119-.12.12-.12.12c-.239.239-.598 1.076-.598 1.076v.12c.12 0 .12 0 .24.956v.24l-.12.119c-.12.12-.12.239-.12.359-.239.598-.239.598-.239 1.076-.119.12-.119.12-.119.359v.12l.119.119c.12 0 .12 0 .239.12v.239s0 .12.12.12c0 .239.239.359.239.598v.119c.12.12 0 .24 0 .479.12 0 .12.119.12.119v.12l.598.718c.239.119.239.119.359.119 1.196-.478 1.315 0 1.315 0 .12 0 .718-.239.718-.359.119 0 .119-.119.359-.119.239-.12.239-.12.358-.12h.24c.119.239 0 .479.119.718.359 0 .359 0 .598-.12v.239h.12c.119.12 0 .479-.239.598-.718.957-.718.957-.598 2.153 0 0 0 .12-.12.239-.12.24-.12.479-.239.718-.239.359-.359.718-.718.957-.359.359-.717.598-.957.837-.119 0-.119.12-.239.12-.119.119-.119.119-.119.239-.24.239-.359.598-.598.837l-.24.239c-.358.718-1.196 1.077-1.674 1.675-.359.358-.598.478-1.196.837-.12.119-.12.119-.359.239l-.119.12h.239l.239-.12v.12h.12s.119 0 .119-.12c.12 0 .239-.12 1.077-.478.956-.479 1.076-.479 1.435-.838.119-.119.239-.239.359-.239.119-.119.358-.119.478-.239.359-.239.359-.239 1.794-1.435.239-.239.239-.239.478-.359.12-.12.12-.12 2.392-2.512l.12-.119c.12-.239.239-.239 1.794-2.273.598-.956 1.076-2.033 1.555-3.109v-.479c.119-.239.119-.717.119-.717v-.479c.12-.717.12-.717.12-.837 0-.598.239-1.315.12-1.913v-.359c0-.12 0-.837-.12-2.153v-.239.837-.478c1.076 1.554 1.196 2.152 1.196 2.87m-9.688-13.515q.18 0 0 0h-.119zm-12.797-9.329h.12v-.119h.119-.119 1.555-.24l.479-.12h-.12.12-.239.239-1.316.12-.957.12-.24.12-.359.12-.239.239-.12.12l.598-.119c-.239 0-.239 0-.359.119h.12c-.24 0-.479 0-.598.12-.12 0-.12.119-.12.119h.12-.12v-.119h-.12c-.239 0-.239.119-.239.119l-.119.12h.119-.359c-.119-.12-.598.12-.598.12h.359c-.119.119-.239.119-.359.119h-.119c.119 0 .239-.119.359-.119-.359.119-.359.119-.479.119 0-.119.12-.119.12-.119-.12 0-.12 0-.359.119-.359 0-.598.12-.598.12h.239c-.119 0-.119 0-.119.119h.358c.12 0 .12 0 .12-.119 0 0-.12 0-.12.119h.24c.119 0 .119 0 .119-.119h-.119c.119-.12.239-.12.358-.12l.12-.119h.12c1.794-.24 1.913-.24 1.913-.24m12.797 10.166c-.239.24.12.359.12.359s.239 0 .359-.239h.239v-.478c0-.12 0-.12-.12-.24v-.119l.12-.12s-.12-.239-.239-.359h-.12l-.119.12v.359h.119c-.119 0-.119 0-.119-.12v.12h-.359v.119l.119.12v.12c.12 0 .12 0 .12.119-.12.12 0 .12 0 .12zM483.97 376.62c-.12 0-.12 0-.12.12h-.957.239-.358.598v.239l-.12.12h.12v.119s-.12 0-.12.12h.359l.119-.12v-.119.119h.24-.12v.12h-.239s-.239-.12-.359 0h.239s-.119 0-.119.12v.239h-.479s-.119 0-.119.119h.478-.12c-.119-.119-.119-.119-.239-.119h-.119l.239.119-.12.12c-.119.12-.119.12 0 .12.12 0 .12 0 .239-.12.24-.12.24-.12.359-.12h-.119c-.24 0-.24 0-.24.12h.12-.12.12s-.12 0-.12.12v.119h.12l.12-.119h-.12v.119h.359v.12h.478v-.12l.12-.119v.239l-.12.119h.12v.12h.119v.12h.24v.119h.119l-.119-.119h.119s0-.12.12-.12v-.12c.119 0 .119 0 .119-.119v-.12c0-.119 0-.119-.119-.239 0-.12.119-.12.119-.12s.24-.119.359-.239h.12c.119-.239 0-.239-.12-.239.12 0 .239 0 .239-.12 0-.119-.119-.119-.119-.119h-.12v-.12c.12.12.12.12.239 0-.119 0-.119 0-.119-.119.119 0 .119 0 .359-.12v-.12.12-.12h.239v-.119h.119v-.12h.24v-.119c.119-.12.119-.24.119-.24 0-.119.12-.119.239-.239l-.119-.119.359.119h.239v-.119h.119s.24 0 .24-.12c0 0 .358 0 .478-.12 0 0 .359-.239.478-.239v-.119l-.478-.12h-.239c-.12.12-.239 0-.239 0h.239v-.12c.119 0 .119 0 .119-.119-.239-.12-.358 0-.358.119h-.24v-.119c.12 0 .24 0 .359-.12l-.119-.119c.119 0 .119 0 .239.119.239.12.239.12.359.239l.239.12c0 .12.119.12.119.12 0-.12 0-.12-.119-.24l-.12-.119s0-.12-.119-.12l-.12-.119c-.12 0-.12-.12-.239-.12l-.12-.12v-.119h-.119c.119 0 .119 0 .239.119 0 0-.12-.119-.239-.119h.119c.12 0 .12 0 .239.119h-.239c.12 0 .12 0 .239.12.12 0 .12-.12.24-.12-.12-.239-.359-.119-.359-.119h.119c.12 0 .12 0 .12-.12h-.239l-.12-.119h.12v-.12c-.12 0-.12-.12-.239-.12h-.24c-.119 0-.119 0-.119-.119h.478-.359.12-.12s0-.12-.119-.12l-.12-.119c-.119 0-.119 0-.119-.12l-.12-.12h-.12.12-.12.12-.12l-.119-.119h-.479s0-.12-.239-.12h-.119c0-.119-.24-.119-.24-.119h-.119.239-.957.12-.359c-.359 3.946-.359 3.946-.478 3.946.119 0 .119.12.119.12zq.179 0 0 0m10.883 9.09s-.119.12 0 .12zl.12.12v.239h.119l.12.119v.12h.239v.12h.12c.119 0 .119 0 0 .119 0 0 .119.12.119.239 0 0-.239 0-.239.12l.12.12s0 .119-.12.119h-.119v.12h.478v.239h-.12v.12l-.119.239s-.12.119 0 .119c0-.119 0-.119.119-.119.12.119.12.119.24 0h.598c.119-.12.239 0 .358 0h.12v-.12c-.12 0-.239 0-.239-.119l.119-.12v-.239s-.119-.359-.358-.239h-.12s0-.12-.12-.24v-.358l-.119-.12-.359-.359c0-.119-.12-.119-.12-.119l-.119-.12h-.239v-.478c0-.12-.12-.12-.12-.12h-.239l-.12-.12s.12-.119 0-.119v-.12h-.478v.239h-.12c.479.359.598.479.598.718m-1.555 9.688c.12-.12.12-.12 0-.12h-.119zq-.179-.18 0 0c-.119 0-.119-.12 0 0m-.478 2.033q.18 0 0 0l.12-.12c-.12 0-.12 0-.12.12m.12-.479q-.18 0 0 0h-.12c0 .12.12.12.12 0q0 .18 0 0m-4.186-17.7c-.12-.12-.24-.12-.24-.12h-.119s.119 0 .119.12h.24m-5.622.598q-.179.179 0 0 0 .179 0 0l.12.119h-.12c0 .12.479 0 .479 0v-.119h-.12v-.12h-.119c-.479-.12-.359 0-.24.12m0 .598c-.119 0-.119.119-.119.119s.119 0 .119-.119h.359s.12 0 .12-.12h-.239.119v-.12h-.359v.12h-.119.119c.24.12.12.12 0 .12m6.578-2.99.359.119h.12s.119 0 .119.12c.12 0 .12 0 .24.119h.239s-.12 0-.239-.119h.119c.12 0 .12.119.239.119h-.119s.119 0 .119.12l.24.12h.119-.119l.239.119h.239l.239.12c-.359-.239-.478-.239-.478-.239-.12-.12-.239-.12-.239-.12l-.24-.12h-.358l-.24-.119c-.119 0-.119 0-.119-.12h.119c-.478-.119-.478-.119-.598-.119q.18 0 0 0c.24 0 .359.119.479.119-.12 0-.12 0-.239-.119h-.24m.359.119c.12 0 .239.12.359.12 0 0-.239-.12-.359-.12m-6.697 1.794q-.18 0 0 0c-.12 0 0 .12 0 0m0 0q.179 0 0 0h.119c0-.119 0-.119-.119 0m10.764 17.701c.119-.12.119 0 0 0q.179-.18 0 0l.119-.12h-.119zq0-.18 0 0m-5.382-17.82c-.12 0-.12 0-.24-.12h-.119l.119.12c.12.119.12.119.24 0 0 .119.119.239.119.119-.119 0-.119 0-.119-.119m5.142 18.059q0 .18 0 0c.12 0 .12.12 0 0h.12c.12 0 .12-.119.12-.119v-.24s-.12 0-.12.12h-.12zm-.239 0h-.119v.12c0 .119.119 0 .119-.12m-4.066-15.667v.119h-.12v.12h.479v.119h.119-.359v.12h.24s0 .12.119.12h.12v.119l.119.12c0 .119-.119 0-.119.119 0 .12.119.12.119.12h.359c0 .12.12.12.359.12h.239v-.12h.239v-.12h.24v-.239l-.12-.119h-.359v-.24c-.119.12-.119-.119-.239-.119v.119h-.12v.12l-.119-.12c-.12 0-.12-.239-.239-.119h-.12v.119c-.12 0-.12-.119-.239-.119v.239h-.12v.12c0-.12 0-.12-.119-.12v-.12c0-.119 0-.119-.12-.119l-.359-.12c.12-.239.12-.239.12-.119.119-.12.119-.12.119 0l.12.119c-.12 0-.239-.119-.239-.119m1.435-3.708c.12 0 .239.12.359.12.119 0 .119.119.239.119.12.12.12.12.239.12l-.119-.12h-.12s-.12 0-.239-.119h-.12c-.119-.12-.239-.24-.239-.12m2.392 19.256q0-.18 0 0h-.12v.119h.12c-.12 0-.12 0 0-.119q-.18.178 0 0c-.12.119-.12 0 0 0q-.18 0 0 0m-19.256 1.076c.12 0 .12.12 0 0q.18 0 0 0c.12-.12 0-.12 0-.12.12.12 0 .12 0 .12m-.358.957q0 .179 0 0h.239c.119 0 .119-.12.119-.12-.119 0-.119-.239-.358-.239-.12 0 0-.12-.12-.12l-.239-.119c0-.12-.239-.12-.239-.12l-.12-.119h-.12l-.119-.12c-.239 0-.239 0-.239-.12 0-.119-.718-.239-.718-.239h-.478s-.479.239-.24.479l.12-.12h.12s.119 0 .239-.12c0 0 .239-.119.239.12.12 0 .12 0 .239.12h.359c.12 0 .12.119.12.239l.119-.12.12.12v.119s0 .12.119.12c.12 0 .12 0 .24.12 0 .119 0 .119-.12.239h.718m-.359.717q0-.178 0 0l-.12-.119h-.239c-.239 0-.239.119-.239.119 0 .12.239.24.239.24s.12-.12.12 0c.119-.24.239-.24.239-.24m4.903 1.555v.12h.12s0-.12-.12-.12m-1.554-1.555h-.24c-.239 0-.239 0-.239.12s.12.12.12.12h.119c.24-.12.359-.12.24-.24.119.12.119 0 0 0m-5.263-1.554c-.119.119 0 .119 0 .119.12 0 .12-.119 0-.119m1.555-.838c-.12 0-.12.12 0 .12zc.12 0 0 .12 0 0m-.12-.956q.18-.18 0 0c0-.12.12-.12 0 0-.119-.12-.119-.12-.119 0v.119c0-.119 0-.119.119-.119m4.186 3.827q.18 0 0 0m2.632-22.605c-.12 0-.24 0-.359.12-.12 0-.12.12-.12 0h-.239l.12-.12h-.12.12v-.119h-.12.12c-.12 0-.24.119-.24.119h.24s-.12 0-.24.12l-.119.12s-.12 0-.12.119l-.119.12h-.12.12c-.12 0-.12 0-.12.119h1.196s.12 0 .12-.119h.239s.119 0 .119-.12h-.119c-.12-.359-.239-.359-.239-.359m-1.555 23.203q0-.18 0 0v-.12zm-.359-.359q0-.18 0 0-.18-.18 0 0m-4.904-3.349q0 .18 0 0v.239-.119l-.119-.239v-.12c.119 0 .119.12.119.239m5.382 4.425c-.119.12-.119.12 0 .12 0 .12.12 0 0-.12q.18 0 0 0m-.119-.358c.119-.12 0-.12 0-.12zm-.479-1.077q0-.179 0 0-.178 0 0 0m.479 2.153q-.18 0 0 0c-.12.12 0 .12 0 0m0 .598q0 .18 0 0-.18.18 0 0l.119.12v-.24s-.119 0-.119.12m-2.392-3.349-.359-.239-.12-.12h-.598l-.119-.119c-.12 0-.12.119-.12.119s0 .12.12.12v.12l.119.119s.12 0 .12.12c.12.119-.12.119-.12.119-.119 0-.239-.119-.239-.119s-.359 0-.119.239l.119.12h.598s.12.119.239.119c0-.119 0-.119.12-.239h.718c-.359-.239-.24-.239-.359-.359q.178 0 0 0m-5.263 6.578v.12c.12 0 .12 0 0-.12q.18.18 0 0c.12.12.12 0 0 0m15.309 2.392c-.119 0-.119 0-.239-.119h-.12c-.478-.598-.478-.598-.598-.718 0 0-1.315-.239-1.435-.12 0-.717-.717-.717-.717-.717-.359 0-.718.598-.957.239.478.12.598 0 .598-.359-.239 0-.359 0-.598-.119-.12.119-.12.239-.12.358-.119-.119-.119-.119-.119-.239.358-.717.358-.717.119-.837-.119-.598-.119-.598-.957-1.316-.239 0-.358 0-.598-.119h-.358c-.24-.359-.359-.359-.479-.359-.359-.478-.359-.478-.478-.598-.239-.12-.239-.12-.479-.12l.12-.119c0-.12-.239-.12-.359-.239h-.119c-.12-.12-.12-.12-.24-.12 0 0 0-.12.12-.12h-.478c-.24.12-.359.24-.718 0-.359.12-.359.12-.598 0 0-.119-.12-.119-.12-.239-.358-.119-.358-.119-.358-.359h-.12c-.12.12-.12.12-.12.24-.119.119-.239 0-.358.239 0 .239.239.359.239.478v.12c-.12 0-.12 0-.239-.239 0-.12.119-.24 0-.598v-.12c.119 0 .119 0 .358-.12v-.119h-.119c-.359 0-.479.478-.837.359l-.12.119h-.239c-.12.12 0 .359-.12.479h-.119c-.12.239-.12.239-.24.358 0 0 0 .12-.119.12h-.12v.239c.598 1.316.239 1.435 0 1.555v.359c0 .119 0 .119-.239.239v.837c0 .12.12.12.12.239h.119v-.119.239c-.359.239.12.598 0 .837l1.914 2.392c.478.479 1.315.598 1.674 1.196l.837 2.512c.359.598.479 1.196.838 1.794.358.598.956.837 1.435 1.435h-.12v.12s.239 0 .359.239c.12.119.359.239 1.196.478h-.12s.12 0 .24.12h.119s-.119 0-.239-.12c-.957-.478-1.076-.837-1.076-.837v-.478h.119l-.119-.12h-.12c-.12-.12-.12-.12-.12-.239.24.119.24.119.359 0h-.119c0-.12 0-.12-.12-.239 0 0 .598.119.598-.24 0-.239-.12-.358-.12-.478.24.12.479.239.718-.478 0 0 .837-.718.598-1.316l.12-.12h.119c.239-.239.359-.358.479-.239v-.119l.478-.12h.12l.358-.359c.12-.359.479-.598.598-.957.12-.358 0-.837.24-1.196h.119l-.119-.119c.119 0 .717-.12 1.315-1.555v-.359m-15.309-2.392q-.179 0 0 0m-.119 0q-.18-.179 0 0c-.12-.119-.12 0-.12 0zv.239s.119 0 .119-.119c0 0-.119 0-.119-.12m30.498-12.438c-.12-.12-.12 0-.12.239 0 0 .12 0 .12.12l.359.358c.119.12.119.12.119 0v-.598c-.119 0-.119.12-.119.12-.24-.12-.24-.239-.359-.239m-.957-1.914s0-.119-.12-.119zc-.12-.119-.12 0-.12 0-.119 0 0 .359.12.479zm-.239.718c0 .239.119.359.119.478v.359h.12s0-.12.12-.12h.119v-.119l-.119-.479-.12-.119-.12-.12s-.119 0-.119.12q0-.18 0 0m-25.116 5.621c-.12 0-.12.12 0 0q-.18.18 0 0m-.837-.718v-.119zm-.24.24q.18 0 0 0m0-.479v-.119h-.119s.119 0 .119.119q0-.179 0 0m-2.75 9.09c0 .119.119.119 0 0m2.99-8.492.119.12v-.12c0-.119 0 0-.119 0q.179-.179 0 0 0-.179 0 0m-.598-1.196v.12c.119 0 0 0 0-.12q.179.18 0 0 .179 0 0 0l.119-.119h-.119zc.119 0 .119-.119 0 0m1.076 2.033c0 .12.12.12.12.12h.119c0-.12-.119-.12-.239-.12m4.306-21.647h.239c.119 0 .119 0 .239-.12h-.239c0 .12-.12.12-.239.12m-.359.717q.179 0 0 0-.18 0 0 0m2.272-.956h.12zq-.179 0 0 0m-.359.358h.12zh.479c.119 0 .119-.119.239-.119-.12 0-.12 0-.12.119.359-.119.359-.119.479-.119.119 0 .119 0 .119-.12h-.239.359c-.12 0-.12 0-.239.12 0-.12.119 0 .119-.12.12 0 .24-.119.24-.119h-.718c-.12 0-.359.119-.359.119h.12-.239l-.24.12s-.119 0-.119.119zh-.119.239-.359c-.119 0-.119 0-.119.12.358-.239.358-.239.358-.12q-.179-.179 0 0m-.239-.119c-.119 0-.359.119-.359.119h-.119.239zq-.179 0 0 0m-1.196.239q0-.18 0 0s-.239.12-.359.12h.12zm1.196 0h-.119zm-.717-.239h.119zh.119c-.119.119-.119.119-.119 0q0 .179 0 0-.18.179 0 0 0 .179 0 0c0 .119 0 .119.119.119 0 0 .12 0 .12-.119h.359-.12c.12 0 .12 0 .239-.12h-.837zc-.12.119-.12 0 0 0m.239.239h.239c-.12-.12-.12 0-.239 0 0-.12-.12 0 0 0m.119 11.84q0-.179 0 0l.12-.119v-.12h-.12c-.119 0-.119.12 0 .239-.119 0-.119-.119 0 0q-.179 0 0 0m0-10.524q.18 0 0 0h.12l.12-.12h-.24c-.119 0-.119.12-.119.12l-.12.119h.239zm-.598 10.046h-.478v.239h.239c.239 0 .239-.119.239-.239q0 .18 0 0m-2.631-6.339-.119.12v.119h.119l.239-.239v-.119c-.119 0-.239 0-.239.119m-.598-.359-.119.12v.12s0 .119.119.119c0 0 .12 0 .12-.119l.119-.12h.12v-.12zm-9.209 3.588s0-.119.12-.119c-.12 0-.12 0-.12.119l-.12.12zm12.319 1.914.119.12h.12c.12 0 .239.119.239 0l-.239-.24c-.12-.119-.359-.119-.359-.119h-.119s0 .119.119.119c0 .12 0 .12.12.12m-.359 1.076-.12.12c.12 0 .12 0 .12-.12m.957.359.239-.239h-.12l-.119.12-.12.119c-.119 0 0 .12.12 0m-2.512-7.056h.12s0-.12.119-.12c-.119.12-.239.12-.239.12m-.359-.12v-.119h-.119v-.12c-.12 0-.12-.12-.12-.12h-.119v-.119h-.12c.12-.12.12-.12 0-.12 0 0-.12 0-.239.12-.12 0-.12.119-.12.239l-.239.239v.12l-.12.119s-.119 0-.239.12c0 .12.239 0 .359 0l-.12.12.12.119s.359-.239.478-.359v.12s.12 0 .12.12h.12c.239-.359.358-.479.358-.479m-9.807 3.349q0 .18 0 0m-.957 2.512.12-.12v-.359l.12-.239v-.239h-.12v.119s0 .12-.12.12v.718m10.884-7.535-.12.119-.119.12c0-.12.119-.12.239-.239m-4.306 23.441.12.12h.12v-.359h.119c.12 0 0-.119.12-.239v.12l.119-.12.12.12.12.119h-.12c-.12.12 0 .239.12.359l.119-.12c.12 0 .12 0 .12-.119 0 0-.12-.479-.718-.598 0 .119 0 .119-.119.119-.12.24-.12.24-.359.24-.239.119-.239.119-.718-.598-.359-.479 0-1.077-.119-1.555l-.359-.359c-.12-.12-.239-.12-.479 0-.119.12-.239-.12-.358 0-.12 0-.12 0-.359.12v-.12c0-.12.119-.239.119-.359 0-.239 0-.359-.119-.478.119-.12 0-.239.119-.359v.239s.12-.239 0-.478v-.239c0-.12.12-.24.24-.359-.12-.239-.12-.239-.24-.239-.119 0-.119.119-.119.119-.12 0-.239-.119-.239 0-.12.12-.24.12-.24 0-.358.239 0 .718-.358.957 0 .12-.12.12-.12 0-.12 0-.12.12-.239.12 0 .358 0 .717.119 1.076l.12.359c.12.119.239.119.359.239h.119l.479.239h.359v.12l.478.478.12.12c0 .119 0 .359.119.359 0 0 .12 0 .12.119v-.119s0 .119.119.119c.24.12.24.359.24.359h.119c.359.239.359.239.837.478q-.179 0 0 0m-3.707-3.946h-.12l-.119.119c-.12-.119-.24-.119-.359-.239l-.239-.598-.24-.598c0-.239.12-.359 0-.598l.12-.718c0-.239-.12-.478 0-.717l.359-.479c.359 0 .359-.358.359-.358.119 0 .239-.24.478-.12.12.12.239 0 .359 0 .119 0 .119.239.239.239h.12c.119.12.119 0 .119-.119l.12.119.119-.119v-.12l-.119-.12.119-.119h.359l.12.119s0-.119.119-.119c.12.119.12.119.12 0 0-.12.359 0 .478 0v.119s0 .12.12.12l.359-.12c.119.12.359.24.359.598 0 .12-.12.359 0 .598 0 0 .119.24.119.479l.12.119h.119v.24s.12 0 .12.119l.12-.119c0-.12.119-.24.119-.359v-.359c0-.239-.119-.359-.119-.478 0-.12.119-.359-.12-.479 0 0 0-.119-.12-.119v-.598c0-.12 0-.12.957-1.077.239 0 .239 0 .359-.119.12-.12.239-.12.359-.24l-.12-.119v-.12c.359-.119.359-.119.359-.239h-.12c0-.12.12-.239.12-.359-.12 0-.12 0-.12-.119l.12-.12c-.12-.12-.12-.12-.12-.359.12-.119.12-.119.24-.359v.598h.119c.12 0 .239-.358.239-.717.24 0 .24 0 .479-.479 0 0 0-.119-.12-.119 0-.12 0-.12.12-.12v.12l.119-.12c.24-.119.24-.119.359-.119.12-.12.12-.12.239-.12h.12l.239-.239c.239-.837.239-.837.598-.837.12-.12.12-.12.479-.24l.119-.119v-.12h.239c.24 0 .359 0 .479-.119h.119v.119h.24v.12h-.12c-.239.119-.239.119-.359 0-.119 0-.119 0-.478.359v.119c.239.239.598-.119.598-.119.119-.24 1.196-.359 1.196-.359l-.12-.239h-.598s-.119-.12-.239-.12-.239-.359-.359-.598c0-.12.12-.12.12-.12v-.119h-.239s0-.12-.12-.12c.359 0 .478 0 .598-.239-.239-.239-.598-.598-2.153.478.239-.598.837-.598 1.316-.956.119-.12.119-.12.478-.24h.598s.12 0 .12.12h.598c.957-.239 1.674-.598 1.674-.598l.12-.12-.12-.119v-.12l.12-.119v-.24c-.12-.239-.359-.239-.479-.119v.119-.239c-.119 0-.119 0-.478.12-.239.119-.359.119-.359.119v-.119c.239 0 .598-.12.837-.239h.12s-.12 0-.12-.12v-.12h-.239v-.119c-.119 0-.119.119-.239.119v-.119c-.12-.12-.12-.12-.478-.598 0 0 .119-.12.239-.12l-.12-.239s.12 0 .12-.12c0-.119-.12-.119-.239-.239v-.119h-.12v-.12l-.12-.12s0-.119-.119-.239v-.119l-.239.119h-.12v.12h-.12l-.119.119h.119l-.239.24v-.12h-.119l-.12.12c0 .119-.12 0-.239.119l-.12.12c0-.12.239-.12.12-.239h-.239c-.12-.12 0-.12 0-.12h.119v-.359c0-.119 0-.119.12-.239 0-.12.119-.12.239-.239h-.478v-.12l-.12-.119v-.24c-.12 0-.359 0-.478.12l-.12-.12h-.12v-.119h-.239c-.359.119-.359.119-.359.359l-.239.358c0 .24 0 .359-.119.359h-.12c-.12.12-.239.239-.359.239-.119 0-.119 0-.119.12.119 0 .239.12.239.12 0 .119.119.358 0 .478h.119-.119c-.359.598-.359.598-.718.718-.598.358-.598.358-.359.478-.119.12-.119.359-.119.478v.12l-.12.12v.239h-.119s-.12 0-.12-.12l-.12.12v.119c-.119-.119-.119-.119-.358-.119l.119-.12c0-.119 0-.119-.119-.359h-.12s0-.119.12-.119c-.12-.239-.12-.239 0-.718 0-.119.119-.239.119-.359v-.119h-.239v-.12h-.239v-.119c-.12 0-.239-.12-.359-.12v-.239l-.239-.239v-.12h-.239v-.12h-.479l.12-.119v-.598c0-.12-.12-.12-.239-.12l.119-.239c.239-.359.598-.598.957-.957h.12c.119-.119.119-.119.239-.119v-.12h.359v-.12h-.24v-.119h.24c0 .119.239.119.239.119s.239-.239.239-.119c.12 0 .12 0 .239-.12h.12c.119-.119.119-.119.239-.119h.12l.119-.12c.12 0 .598-.239.598-.359 0-.119.12 0 .239 0v.12h.12s.12.119.12-.12v-.119h.119v.239c.12-.12.239-.12.359-.239 0 0 .12 0 .239-.12v-.12c0-.119 0-.119.12-.239h.119l.24-.119v-.12l.119-.12h-.119s.119 0 .119-.119h-.359c-.119 0-.119 0-.119.119v.12c-.12.12-.12.12-.239.12l-.359.358c-.12 0-.12.12-.239.12-.12 0-.12 0-.24.12.24-.359.24-.359.24-.479l.119-.119c-.119 0-.478.239-.478.239l.239-.239c0-.12.12 0 .12 0l.119-.12v-.12h-.239l.239-.119s.12 0 .12-.12l.239-.359s0-.119.12-.119c.119-.12.119-.12.239-.12h.119l.12-.119h.239c.12 0 .12-.12.239-.12h.12l.239-.12h-.119c-.479 0-1.914 1.077-1.914 1.077-.239.119-.239.119-.239.239v.12l-.239.239s.119 0 .119-.12c-.119.239-.359.239-.478.359-.239 0-.239.239-.479.359 0 0 0-.12.12-.12 0-.119 0-.119.12-.119 0 0 .119 0 .119-.12h-.239v-.12c-.359.24-.359.24-.478.24-.12 0-.24 0-.479.119 0 0 0-.119-.119-.119h-.12v-.12c0-.12.12-.12.12-.12-.12 0-.598.12-.598.24.119 0 .239-.12.358-.12l-.837.478-.119.12v-.12c.119-.119.119-.119.239-.119l.119-.12v-.119c-.119 0-.119 0-.478.119.359-.239.359-.239.478-.359h-.239v-.119s0-.12.12-.12c-.12 0-.12.12-.239.12.119-.12.119-.12.358-.239-.119 0-.358.119-.478.239l.12-.12c-2.392 1.435-4.306 3.229-5.98 5.382 0 .12 0 .12-.12.12 0 0 0 .119-.12.119 0 .12 0 .12-.119.12 0 .12-.12.12-.12.239l.12-.119c0 .119-.12.239-.12.239l-.119.239v.12c-.12.119-.12.119-.12.239l-.12.239v.12h.12l-.12.119c0 .12 0 .12-.119.12v.359l-.12.239v-.12l-.239.598s-.359.598-.359.718c-.837 1.794-.957 2.631-.957 2.99h.12c-.239.359-.12.837-.12.837 0 .239-.119.359 0 .598h.12v.12c0 .239.12.478 0 .478 0 0 0 1.076.12 1.316v.478c-.12 0-.12 0-.12.12 0 0 0 .119.12.239 0 .119.239.239.239.478v.479l.359.717s0-.119.119-.119v-.12c0-.12 0-.239-.119-.359v-.119c-.12-.12 0-.24 0-.359v-.239c0-.24-.12-.479-.24-.718v-.718c-.119-.119-.119-.119 0-.478v-.239h.12v.359c.12.358 0 .717.12.956l.119.12v.12c.239.119.12.478.12.598 0 0 0 .119.119.119l.359.837.12.12v.12c.239.358 0 .837.239 1.315v.12c.12 0 .12 0 .239.239.12.12.239.12.359.239l.12.12.119.119s.12.12.239.12c0 0 .12 0 .12.12.239.239.239.239.598.358h.12c.358-.239.358-.239.717.12.239.239.239-.12.12-.478m4.784-10.286c-.239 0-.239-.239-.359-.239v.119c.12 0 .12.24.12.24 0 .119-.12.119-.24.119v.359c0 .12-.119.12-.239.239 0 0 0 .12-.119.12-.12 0-.24.119-.12.119 0 0 .12 0 .239-.119l.239-.12v-.119h.12l.12.119.119-.119h.239c.12 0 .12 0 .12-.12l-.239-.12c0-.119.239-.119.239-.239l.478-.119h.24c.119 0 .119-.12.239-.24.119 0 .239-.119.359-.119l-.359.359-.12.119c0 .12-.239.12-.239.239-.12 0-.359-.239-.478-.119 0 .239 0 .239-.24.359-.119 0-.119.119-.119.119-.12 0-.12.12-.239.12h-.12l-.359.119c-.119 0-.359-.119-.359-.119l.12-.12.359-.359v-.358l-.239.119s-.12.12-.12 0l.12-.119c.239 0 .239-.479.239-.479 0-.119-.359-.239-.359-.239-.12 0-.12.12-.239.359v-.12c-.12 0-.239.12-.239.359 0 .12-.12.12-.12.12 0 .119.12.119 0 .239v.119c-.12.359-.239.359-.359.479-.119 0-.119 0-.119-.479l.119-.239v-.239c0-.12.12-.239.239-.359.12-.119.12-.119.12-.359-.12.12-.12.24-.359.359 0-.119.359-.478.359-.478h.12c.119 0 .119-.12.119-.12h.12l.119-.119c.12.119.24 0 .359.119 0-.119-.239-.119-.239-.239h-.239c-.12 0-.12 0-.239.12l-.12-.12c0-.12 0-.12-.239-.12.119-.119.239-.119.359-.119 0-.12-.12 0-.12 0s-.239.119-.359.239l-.119.12h-.359c-.12-.12-.239.119-.359.119 0-.119.478-.359.478-.359.24-.119.24-.119.479-.358v.119c.119-.119.119-.239.239-.239s.12 0 .12.12h.239c.119.239.119.239.119.478.12 0 .12-.12.24-.12v.12c0 .12-.12.12-.12.12l.12.119c-.12.12 0 .239 0 .239h.119c.12 0 .239 0 .479.12.239.12.239.12.358.239.12.12.12.359-.119.359m-2.631-8.133q.179-.179 0 0l.119-.119c.12-.12.239-.12.239-.12h.12s.12 0 .12-.12h-.359l.119-.119c.12 0 .12 0 .12-.12 0 0 .12 0 .12-.119.119 0 .119 0 .119-.12l.239-.12v.12h-.239l.12-.12-.12.12c-.119.12-.239.12-.239.12s-.12.119-.12 0l-.119.119s0 .12-.12.12c.239.359 0 .478-.119.478.119.12.119 0 0 0 .119.12 0 .12 0 0h.239-.12c.12-.119.12 0-.119 0m-.957 1.316q0 .179 0 0c.119 0 .119.119 0 0 .239 0 .239-.12.359-.12.119 0 .119-.119.239-.359v.24c.239 0 .239-.24.478-.24h.12l.119-.119h.12-.12c.12.119-.119.119-.119.119h-.12l-.119.12-.12.12-.12.119-.119.12c-.12.119-.239.119-.239.119-.12 0-.12.12-.12 0v-.119h-.12c-.119.119-.119.119-.119 0m.239 4.305c.12-.119.12-.239.239-.478l-.119.12c0-.12.119-.12.119-.24h-.119v-.239c0-.119.119-.119.119-.119h-.119c0-.12 0-.12.119-.24h.12s.119 0 .239-.239v.12h.12-.12l-.12.119v.12c0 .12-.119.12-.119.12 0 .119 0 .119-.12.239v.359c0 .239-.239.478-.239.358"/><path fill="#fff" d="M583.834 201.287h-149.5v129.168h149.5z"/><path fill="#000" d="M583.834 201.287h-149.5v13.036h149.5z"/><path fill="#fff" d="M583.834 201.287h-149.5v6.578h149.5z" opacity=".45"/><path fill="#FFF9FF" d="M579.887 207.506c0 2.153-1.675 3.827-3.827 3.827s-3.828-1.674-3.828-3.827 1.675-3.827 3.828-3.827 3.827 1.674 3.827 3.827M563.503 210.974a3.826 3.826 0 1 0 .001-7.653 3.826 3.826 0 0 0-.001 7.653M554.772 207.506c0 2.153-1.675 3.827-3.828 3.827s-3.827-1.674-3.827-3.827 1.675-3.827 3.827-3.827 3.828 1.674 3.828 3.827"/><path fill="#5E77A0" d="M567.927 302.229H449.523c-2.392 0-4.426-1.914-4.426-4.425v-67.335a4.415 4.415 0 0 1 4.426-4.425h118.404a4.414 4.414 0 0 1 4.425 4.425v67.335c-.12 2.511-2.033 4.425-4.425 4.425"/><path fill="#FFF9FF" d="m529.774 261.565-29.183-16.864c-2.033-1.196-4.544.24-4.544 2.632v33.727c0 2.272 2.511 3.827 4.544 2.631l29.183-16.864a3.032 3.032 0 0 0 0-5.262"/><path fill="url(#y)" fill-opacity=".1" d="M572.233 244.462v-13.993a4.415 4.415 0 0 0-4.425-4.425H449.404a4.415 4.415 0 0 0-4.426 4.425v44.132z"/><path fill="#D9D9D9" d="M572.352 309.285H445.217v4.665h127.135z"/><path fill="#D9D9D9" d="M472.007 319.092h31.694v-2.272h-31.694zm34.684 0h5.382v-2.272h-5.382zm8.372 0h16.266v-2.272h-16.266zm19.256-2.272v2.272h20.93v-2.272zm-89.102 2.272h23.92v-2.272h-23.92z" opacity=".45"/><path fill="#fff" d="M567.209 295.89H450.12a1.327 1.327 0 0 1-1.315-1.315c0-.718.598-1.316 1.315-1.316h117.089c.717 0 1.315.598 1.315 1.316.12.717-.478 1.315-1.315 1.315"/><path fill="url(#z)" d="M547.595 294.575c0 2.272-1.914 4.186-4.186 4.186s-4.186-1.914-4.186-4.186 1.913-4.186 4.186-4.186c2.392 0 4.186 1.794 4.186 4.186"/><path fill="#8ED4F2" d="M545.681 294.575a2.143 2.143 0 0 1-2.153 2.152 2.143 2.143 0 0 1-2.153-2.152c0-1.196.957-2.153 2.153-2.153s2.153.957 2.153 2.153"/><path fill="#F28EE8" d="M596.034 265.871h-24.398c-2.153 0-3.827-1.675-3.827-3.828v-24.398c0-2.153 1.674-3.827 3.827-3.827h24.398c2.153 0 3.827 1.674 3.827 3.827v24.398c0 2.153-1.794 3.828-3.827 3.828"/><path fill="#fff" d="m580.964 256.662-5.98-4.665c-.718-.598-.837-1.555-.359-2.272.598-.718 1.555-.837 2.272-.359l3.947 2.99c.718.478 1.675.478 2.273-.239l7.893-8.731c.598-.718 1.675-.718 2.392-.12.718.598.718 1.675.12 2.392l-10.286 10.884c-.717.478-1.674.598-2.272.12"/><path fill="#5E77A0" d="M356.26 373.75H185.783a5 5 0 0 0-5 5v70.012a5 5 0 0 0 5 5H356.26a5 5 0 0 0 5-5V378.75a5 5 0 0 0-5-5"/><path fill="#fff" d="M332.675 408.195H213.792c-5.501 0-10.046-4.545-10.046-10.047 0-5.501 4.545-10.046 10.046-10.046h118.883c5.502 0 10.046 4.545 10.046 10.046 0 5.622-4.544 10.047-10.046 10.047"/><path fill="#000" d="M221.209 398.866c-.471-.314-.633-1.208-.362-1.704a2.9 2.9 0 0 0 .362-1.406 2.96 2.96 0 0 0-2.99-2.99 2.96 2.96 0 0 0-2.99 2.99c0 .525.141 1.02.384 1.446.259.456.046 1.266-.34 1.621a1 1 0 0 1-.098.078q-.146.1-.278.235c-1.095 1.099-.445 2.977 1.033 3.448a7.5 7.5 0 0 0 2.289.348c.639 0 1.262-.087 1.86-.248 1.732-.467 2.651-2.867 1.13-3.818"/><path fill="#fff" d="M332.675 435.344H213.792c-5.501 0-10.046-4.545-10.046-10.046 0-5.502 4.545-10.047 10.046-10.047h118.883c5.502 0 10.046 4.545 10.046 10.047 0 5.501-4.544 10.046-10.046 10.046"/><g fill="#7E7E7E" opacity=".6"><path d="M254.438 422.255c.533.506 1.397.015 1.263-.707a.773.773 0 0 1 .753-.915h1.089c.509 0 .893.462.801.963-.14.755.754 1.26 1.337.761a.82.82 0 0 1 1.246.213l.483.845a.752.752 0 0 1-.423 1.089c-.684.219-.701 1.18-.026 1.423l.039.014a.766.766 0 0 1 .4 1.11l-.604 1.022a.772.772 0 0 1-1.182.181c-.548-.493-1.41-.011-1.276.715l.011.057a.792.792 0 0 1-.779.936h-.94a.814.814 0 0 1-.8-.963c.14-.754-.747-1.266-1.329-.767a.814.814 0 0 1-1.244-.228l-.504-.924a.808.808 0 0 1 .438-1.145c.706-.254.715-1.256.009-1.51a.8.8 0 0 1-.424-1.151l.483-.845a.757.757 0 0 1 1.179-.174M272.38 422.255c.532.506 1.396.015 1.263-.707a.772.772 0 0 1 .752-.915h1.09c.509 0 .893.462.8.963-.14.755.754 1.26 1.337.761a.82.82 0 0 1 1.246.213l.484.845a.752.752 0 0 1-.424 1.089c-.683.219-.701 1.18-.025 1.423l.039.014a.765.765 0 0 1 .399 1.11l-.603 1.022a.773.773 0 0 1-1.182.181c-.549-.493-1.411-.011-1.277.715l.011.057a.792.792 0 0 1-.779.936h-.939a.815.815 0 0 1-.801-.963c.14-.754-.746-1.266-1.329-.767a.814.814 0 0 1-1.244-.228l-.504-.924a.808.808 0 0 1 .438-1.145c.706-.254.715-1.256.009-1.51a.8.8 0 0 1-.424-1.151l.483-.845a.758.758 0 0 1 1.18-.174M290.319 422.255c.532.506 1.397.015 1.263-.707a.773.773 0 0 1 .753-.915h1.089c.509 0 .893.462.801.963-.14.755.754 1.26 1.337.761a.82.82 0 0 1 1.246.213l.483.845a.752.752 0 0 1-.423 1.089c-.684.219-.701 1.18-.026 1.423l.039.014a.766.766 0 0 1 .4 1.11l-.604 1.022a.772.772 0 0 1-1.182.181c-.548-.493-1.41-.011-1.276.715l.01.057a.79.79 0 0 1-.778.936h-.94a.814.814 0 0 1-.8-.963c.139-.754-.747-1.266-1.33-.767a.813.813 0 0 1-1.243-.228l-.504-.924a.808.808 0 0 1 .438-1.145c.706-.254.715-1.256.009-1.51a.8.8 0 0 1-.424-1.151l.483-.845a.757.757 0 0 1 1.179-.174M308.259 422.255c.532.506 1.397.015 1.263-.707a.773.773 0 0 1 .753-.915h1.089c.509 0 .893.462.8.963-.14.755.754 1.26 1.337.761a.82.82 0 0 1 1.246.213l.484.845a.752.752 0 0 1-.424 1.089c-.683.219-.701 1.18-.025 1.423l.039.014a.766.766 0 0 1 .4 1.11l-.604 1.022a.772.772 0 0 1-1.182.181c-.549-.493-1.411-.011-1.276.715l.01.057a.792.792 0 0 1-.779.936h-.939a.815.815 0 0 1-.801-.963c.14-.754-.746-1.266-1.329-.767a.814.814 0 0 1-1.244-.228l-.504-.924a.81.81 0 0 1 .439-1.145c.706-.254.714-1.256.008-1.51a.8.8 0 0 1-.424-1.151l.483-.845a.758.758 0 0 1 1.18-.174M326.198 422.255c.532.506 1.397.015 1.263-.707a.773.773 0 0 1 .753-.915h1.089c.509 0 .893.462.8.963-.139.755.754 1.26 1.337.761a.82.82 0 0 1 1.247.213l.483.845a.752.752 0 0 1-.423 1.089c-.684.219-.701 1.18-.026 1.423l.039.014a.766.766 0 0 1 .4 1.11l-.604 1.022a.772.772 0 0 1-1.182.181c-.548-.493-1.411-.011-1.276.715l.01.057a.79.79 0 0 1-.778.936h-.94a.814.814 0 0 1-.8-.963c.139-.754-.747-1.266-1.33-.767a.813.813 0 0 1-1.243-.228l-.504-.924a.808.808 0 0 1 .438-1.145c.706-.254.715-1.256.009-1.51a.8.8 0 0 1-.424-1.151l.482-.845a.758.758 0 0 1 1.18-.174M236.499 422.255c.532.506 1.397.015 1.263-.707a.773.773 0 0 1 .753-.915h1.089c.509 0 .893.462.8.963-.14.755.754 1.26 1.337.761a.82.82 0 0 1 1.246.213l.484.845a.752.752 0 0 1-.424 1.089c-.683.219-.701 1.18-.025 1.423l.039.014a.766.766 0 0 1 .4 1.11l-.604 1.022a.772.772 0 0 1-1.182.181c-.549-.493-1.411-.011-1.276.715l.01.057a.792.792 0 0 1-.779.936h-.939a.815.815 0 0 1-.801-.963c.14-.754-.746-1.266-1.329-.767a.814.814 0 0 1-1.244-.228l-.504-.924a.81.81 0 0 1 .439-1.145c.706-.254.714-1.256.008-1.51a.8.8 0 0 1-.424-1.151l.483-.845a.758.758 0 0 1 1.18-.174"/></g><path fill="#000" d="M221.328 423.623a.6.6 0 0 1-.598-.598v-1.196c0-1.315-1.076-2.511-2.512-2.511-1.315 0-2.511 1.076-2.511 2.511v1.316a.48.48 0 0 1-.479.478c-.239 0-.478.239-.478.479v5.501c0 .239.239.479.478.479h6.1c.239 0 .478-.24.478-.479v-5.501c0-.24-.239-.479-.478-.479m-2.241 2.481c-.02.429-.39.781-.39 1.21v.854c0 .12-.12.239-.239.239h-.479a.26.26 0 0 1-.239-.239v-.717c0-.513-.359-1.042-.359-1.555 0-.479.359-.838.837-.838.416 0 .741.271.819.655.025.119.055.269.05.391m.806-4.155a1.674 1.674 0 0 1-3.349 0v-.12c0-.957.718-1.674 1.674-1.674.957 0 1.675.717 1.675 1.674z"/><path fill="#B8C8DB" fill-opacity=".6" d="M700.153 394.614h19.017v-5.143h-19.017zm22.007 0h8.372v-5.143h-8.372zm11.362 0h19.016v-5.143h-19.016zm-47.84 0h11.481v-5.143h-11.481zm90.058-5.143v5.143h19.256v-5.143zm-20.212 5.143h17.222v-5.143h-17.222zM700.153 348.688h19.017v-5.143h-19.017zm22.007 0h8.372v-5.143h-8.372zm11.362 0h19.016v-5.143h-19.016zm-47.84 0h11.481v-5.143h-11.481zm90.058-5.024v5.143h19.256v-5.143zm-20.212 5.024h17.222v-5.143h-17.222zM707.449 403.704h15.667v-5.143h-15.667zm27.508 0h16.983v-5.143h-16.983zm-8.97 0h5.86v-5.143h-5.86zm28.943 0h21.528v-5.143H754.93zm24.518-5.024v5.143h15.668v-5.143zm-93.766 5.024h18.777v-5.143h-18.777zM697.642 412.913h31.096v-5.143h-31.096zm40.544 0h14.472v-5.143h-14.472zm-6.458 0h3.468v-5.143h-3.468zm46.165-5.143v5.143h17.223v-5.143zm-92.211 5.143h8.97v-5.143h-8.97zm69.966 0h19.255v-5.143h-19.255zM716.18 338.402h23.92v-5.143h-23.92zm-10.166 0h7.176v-5.143h-7.176zm64.942-5.143v5.143h24.16v-5.143zm-85.274 5.143h17.461v-5.143h-17.461zm57.408 0h24.876v-5.143H743.09zM708.764 477.497h24.16v-5.143h-24.16zm-29.182 0h15.668v-5.143h-15.668zm19.136 0h6.578v-5.143h-6.578zm-31.335 0h8.731v-5.143h-8.731zm104.53-5.143v5.143h23.083v-5.143zm-24.877 5.143h21.409v-5.143h-21.409zm-10.524 0h7.056v-5.143h-7.056zM703.024 486.586h27.986v-5.142h-27.986zm-11.841 0h8.372v-5.142h-8.372zm75.707-5.142v5.142h28.106v-5.142zm-99.507 5.142h20.332v-5.142h-20.332zm67.095 0h28.944v-5.142h-28.944zM690.944 504.766h21.169v-5.143h-21.169zm24.638 0H727.9v-5.143h-12.318zm15.787 0h6.817v-5.143h-6.817zm-63.986 0h20.093v-5.143h-20.093zm74.391 0h21.648v-5.143h-21.648zm39.946-5.143v5.143h13.276v-5.143zm-14.83 5.143h11.362v-5.143H766.89zM705.774 513.855h6.578v-5.143h-6.578zm10.047 0h22.126v-5.143h-22.126zm25.714 0h19.375v-5.143h-19.375zm39.468-5.143v5.143h13.993v-5.143zm-16.625 5.143h13.156v-5.143h-13.156zM694.771 522.945h23.442v-5.143h-23.442zm82.285-5.023v5.142h18.299v-5.142zm-55.375 5.023h9.09v-5.143h-9.09zm12.558 0h39.349v-5.143h-39.349z"/><path fill="#F28EE8" d="M367.226 428.053h-24.399c-2.153 0-3.827-1.675-3.827-3.827v-24.399c0-2.153 1.674-3.827 3.827-3.827h24.399c2.152 0 3.827 1.674 3.827 3.827v24.399c0 2.152-1.794 3.827-3.827 3.827"/><path fill="#fff" d="m352.155 418.844-5.98-4.665c-.717-.598-.837-1.555-.359-2.272.598-.718 1.555-.837 2.273-.359l3.947 2.99c.717.478 1.674.478 2.272-.239l7.894-8.731c.598-.718 1.674-.718 2.392-.12.717.598.717 1.675.119 2.392l-10.285 10.884c-.718.478-1.675.598-2.273.12"/><defs><linearGradient id="b" x1="517.84" x2="496.345" y1="209.763" y2="341.263" gradientUnits="userSpaceOnUse"><stop stop-color="#FFF9FF"/><stop offset="1" stop-color="#D9D9D9"/></linearGradient><linearGradient id="c" x1="489.756" x2="479.496" y1="281.559" y2="504.91" gradientUnits="userSpaceOnUse"><stop stop-color="#8FBCFF"/><stop offset="1" stop-color="#9CC2FF"/></linearGradient><linearGradient id="d" x1="382.699" x2="439.54" y1="-157.84" y2="581.935" gradientUnits="userSpaceOnUse"><stop stop-color="#fff"/><stop offset="1" stop-color="#B4CDF3"/></linearGradient><linearGradient id="e" x1="396.887" x2="408.233" y1="78.393" y2="395.301" gradientUnits="userSpaceOnUse"><stop stop-color="#fff"/><stop offset="1" stop-color="#B4CDF3"/></linearGradient><linearGradient id="f" x1="504.685" x2="516.512" y1="137.131" y2="535.899" gradientUnits="userSpaceOnUse"><stop stop-color="#fff"/><stop offset="1" stop-color="#B4CDF3"/></linearGradient><linearGradient id="g" x1="515.743" x2="552.049" y1="-196.53" y2="512.836" gradientUnits="userSpaceOnUse"><stop stop-color="#fff"/><stop offset="1" stop-color="#B4CDF3"/></linearGradient><linearGradient id="h" x1="415.152" x2="408.997" y1="447.605" y2="485.26" gradientUnits="userSpaceOnUse"><stop stop-color="#FFF9FF"/><stop offset="1" stop-color="#D9D9D9"/></linearGradient><linearGradient id="i" x1="401" x2="560" y1="494" y2="506" gradientUnits="userSpaceOnUse"><stop stop-color="#fff"/><stop offset="1" stop-color="#CCC8C8"/></linearGradient><linearGradient id="j" x1="277.226" x2="279.489" y1="67.057" y2="216.555" gradientUnits="userSpaceOnUse"><stop stop-color="#fff"/><stop offset="1" stop-color="#B4CDF3"/></linearGradient><linearGradient id="k" x1="352.062" x2="335.479" y1="206.849" y2="207.441" gradientUnits="userSpaceOnUse"><stop stop-color="#542680"/><stop offset="1" stop-color="#3A0965"/></linearGradient><linearGradient id="l" x1="197.531" x2="197.531" y1="324.423" y2="313.965" gradientUnits="userSpaceOnUse"><stop stop-color="#FFF9FF"/><stop offset="1" stop-color="#FFD8FF"/></linearGradient><linearGradient id="m" x1="197.54" x2="197.54" y1="288.188" y2="308.933" gradientUnits="userSpaceOnUse"><stop stop-color="#FFF9FF"/><stop offset="1" stop-color="#D9D9D9"/></linearGradient><linearGradient id="n" x1="197.54" x2="197.54" y1="288.188" y2="308.933" gradientUnits="userSpaceOnUse"><stop stop-color="#FFF9FF"/><stop offset="1" stop-color="#D9D9D9"/></linearGradient><linearGradient id="y" x1="573.426" x2="427.222" y1="252.363" y2="248.098" gradientUnits="userSpaceOnUse"><stop stop-color="#fff"/><stop offset="1" stop-color="#1A69A2" stop-opacity="0"/></linearGradient><linearGradient id="z" x1="547.737" x2="538.208" y1="294.658" y2="294.38" gradientUnits="userSpaceOnUse"><stop stop-color="#FFF9FF"/><stop offset="1" stop-color="#FFD8FF"/></linearGradient><radialGradient id="a" cx="0" cy="0" r="1" gradientTransform="matrix(270.004 0 0 46.0269 432.038 507.028)" gradientUnits="userSpaceOnUse"><stop stop-color="#292929" stop-opacity=".5"/><stop offset="1" stop-color="#BABABA" stop-opacity="0"/></radialGradient><radialGradient id="o" cx="0" cy="0" r="1" gradientTransform="translate(197.951 297.964)scale(3.77698)" gradientUnits="userSpaceOnUse"><stop stop-color="#170551"/><stop offset="1" stop-color="#5437C3"/></radialGradient><radialGradient id="p" cx="0" cy="0" r="1" gradientTransform="matrix(3.77708 0 0 3.77709 197.951 297.965)" gradientUnits="userSpaceOnUse"><stop stop-color="#170551"/><stop offset="1" stop-color="#5437C3"/></radialGradient><radialGradient id="q" cx="0" cy="0" r="1" gradientTransform="translate(197.951 294.816)scale(3.77697)" gradientUnits="userSpaceOnUse"><stop stop-color="#170551"/><stop offset="1" stop-color="#5437C3"/></radialGradient><radialGradient id="r" cx="0" cy="0" r="1" gradientTransform="matrix(-3.77706 0 0 -3.7771 195.508 297.964)" gradientUnits="userSpaceOnUse"><stop stop-color="#170551"/><stop offset="1" stop-color="#5437C3"/></radialGradient><radialGradient id="s" cx="0" cy="0" r="1" gradientTransform="rotate(180 97.754 148.982)scale(3.77709)" gradientUnits="userSpaceOnUse"><stop stop-color="#170551"/><stop offset="1" stop-color="#5437C3"/></radialGradient><radialGradient id="t" cx="0" cy="0" r="1" gradientTransform="matrix(-3.77696 0 0 -3.77697 195.508 294.816)" gradientUnits="userSpaceOnUse"><stop stop-color="#170551"/><stop offset="1" stop-color="#5437C3"/></radialGradient><radialGradient id="u" cx="0" cy="0" r="1" gradientTransform="translate(197.565 292.373)scale(3.2725)" gradientUnits="userSpaceOnUse"><stop stop-color="#5437C3"/><stop offset="1" stop-color="#170551"/></radialGradient><radialGradient id="v" cx="0" cy="0" r="1" gradientTransform="matrix(7.85809 0 0 7.85807 198.605 294.277)" gradientUnits="userSpaceOnUse"><stop stop-color="#5437C3"/><stop offset="1" stop-color="#170551"/></radialGradient><radialGradient id="w" cx="0" cy="0" r="1" gradientTransform="rotate(-13.721 1854.236 -1835.757)scale(29.1464)" gradientUnits="userSpaceOnUse"><stop stop-color="#1FAEF5"/><stop offset="1" stop-color="#2563C5"/></radialGradient><radialGradient id="x" cx="0" cy="0" r="1" gradientTransform="rotate(-13.721 1863.675 -1828.774)scale(27.2189)" gradientUnits="userSpaceOnUse"><stop stop-color="#FFF9FF"/><stop offset="1" stop-color="#D8EFFF"/></radialGradient></defs></svg>