<svg width="31" height="38" viewBox="0 0 31 38" fill="none" xmlns="http://www.w3.org/2000/svg">
<path d="M15.1024 1.46241L15.6773 0.117804C15.4956 0.0400757 15.3 0 15.1024 0C14.9048 0 14.7092 0.0400757 14.5275 0.117804L15.1024 1.46241ZM15.1024 36.539L14.3775 37.8075C14.5983 37.9337 14.8481 38 15.1024 38C15.3567 38 15.6065 37.9337 15.8273 37.8075L15.1024 36.539ZM14.5256 0.119753L2.06951 5.45723L3.21535 8.14644L15.6753 2.80701L14.5256 0.119753ZM0 8.59269V21.9607H2.92304V8.59269H0ZM6.62752 33.3801L14.3775 37.8075L15.8273 35.2703L8.07735 30.841L6.62752 33.3801ZM15.8273 37.8075L23.5773 33.3801L22.1274 30.841L14.3775 35.2703L15.8273 37.8075ZM30.2048 21.9588V8.59464H27.2817V21.9627L30.2048 21.9588ZM28.1392 5.45918L15.6773 0.119753L14.5275 2.80506L26.9875 8.14644L28.1392 5.45918ZM30.2048 8.59464C30.2048 7.23055 29.3922 5.99702 28.1392 5.45918L26.9875 8.14644C27.075 8.18417 27.1495 8.24675 27.2018 8.32642C27.2541 8.40608 27.2819 8.49934 27.2817 8.59464H30.2048ZM23.5773 33.3801C25.5904 32.2297 27.2637 30.5676 28.4276 28.5622C29.5915 26.5568 30.2046 24.2794 30.2048 21.9607H27.2817C27.2814 23.7639 26.8044 25.5348 25.8993 27.0943C24.9941 28.6537 23.6929 29.9463 22.1274 30.841L23.5773 33.3801ZM0 21.9607C0.000208062 24.2794 0.613315 26.5568 1.77719 28.5622C2.94107 30.5676 4.61436 32.2297 6.62752 33.3801L8.07735 30.841C6.51158 29.9461 5.21017 28.6533 4.30501 27.0934C3.39984 25.5336 2.92309 23.7622 2.92304 21.9588L0 21.9607ZM2.06562 5.45723C1.45257 5.72026 0.930128 6.15731 0.562976 6.71427C0.195824 7.27123 8.72346e-05 7.9256 0 8.59269H2.92304C2.92304 8.39782 3.03997 8.22049 3.21925 8.14254L2.06562 5.45723Z" fill="#2563C5"/>
<path d="M20.941 15.1033L13.1462 22.8981L9.2488 19.0007" stroke="#2563C5" stroke-width="3.5" stroke-linecap="round" stroke-linejoin="round"/>
</svg>
