<svg width="62" height="124" viewBox="0 0 62 124" fill="none" xmlns="http://www.w3.org/2000/svg">
<g clip-path="url(#clip0_0_69)">
<path d="M111.599 45.4666H12.3995M111.599 45.4666C113.792 45.4666 115.895 44.5956 117.445 43.0453C118.995 41.495 119.866 39.3924 119.866 37.1999V20.6666C119.866 18.4741 118.995 16.3715 117.445 14.8212C115.895 13.2709 113.792 12.3999 111.599 12.3999H12.3995C10.207 12.3999 8.10436 13.2709 6.55406 14.8212C5.00376 16.3715 4.13281 18.4741 4.13281 20.6666V37.1999C4.13281 39.3924 5.00376 41.495 6.55406 43.0453C8.10436 44.5956 10.207 45.4666 12.3995 45.4666M111.599 45.4666C113.792 45.4666 115.895 46.3375 117.445 47.8878C118.995 49.4381 119.866 51.5408 119.866 53.7332V70.2666C119.866 72.459 118.995 74.5617 117.445 76.112C115.895 77.6623 113.792 78.5332 111.599 78.5332M12.3995 45.4666C10.207 45.4666 8.10436 46.3375 6.55406 47.8878C5.00376 49.4381 4.13281 51.5408 4.13281 53.7332V70.2666C4.13281 72.459 5.00376 74.5617 6.55406 76.112C8.10436 77.6623 10.207 78.5332 12.3995 78.5332M111.599 78.5332H12.3995M111.599 78.5332C113.792 78.5332 115.895 79.4042 117.445 80.9545C118.995 82.5048 119.866 84.6074 119.866 86.7999V103.333C119.866 105.526 118.995 107.628 117.445 109.179C115.895 110.729 113.792 111.6 111.599 111.6H12.3995C10.207 111.6 8.10436 110.729 6.55406 109.179C5.00376 107.628 4.13281 105.526 4.13281 103.333V86.7999C4.13281 84.6074 5.00376 82.5048 6.55406 80.9545C8.10436 79.4042 10.207 78.5332 12.3995 78.5332M16.5328 28.9332H41.3328M16.5328 61.9999H41.3328M16.5328 95.0666H41.3328" stroke="white" stroke-opacity="0.2" stroke-width="5.27"/>
</g>
<defs>
<clipPath id="clip0_0_69">
<rect width="62" height="124" fill="white"/>
</clipPath>
</defs>
</svg>
