<svg width="64" height="64" viewBox="0 0 64 64" fill="none" xmlns="http://www.w3.org/2000/svg">
<path d="M6.50003 6.00012H16.2738L19.7559 40.6206C19.9006 41.575 20.3854 42.4449 21.1209 43.0701C21.8564 43.6953 22.793 44.0336 23.7583 44.0226H48.9732C49.846 44.0682 50.7097 43.8268 51.4324 43.3354C52.1551 42.8439 52.6971 42.1294 52.9756 41.301L58.2987 25.2916C58.4972 24.6897 58.5499 24.0492 58.4525 23.423C58.3551 22.7967 58.1103 22.2026 57.7384 21.6894C57.3509 21.1438 56.8328 20.7041 56.2315 20.4104C55.6302 20.1167 54.9649 19.9785 54.2963 20.0084H17.6746M31.2347 28.0132V36.0179M43.2418 28.0132V36.0179M48.2928 58.0309C47.762 58.0309 47.253 57.8201 46.8777 57.4448C46.5024 57.0695 46.2916 56.5605 46.2916 56.0298C46.2916 55.499 46.5024 54.99 46.8777 54.6147C47.253 54.2394 47.762 54.0286 48.2928 54.0286C48.8235 54.0286 49.3325 54.2394 49.7078 54.6147C50.0831 54.99 50.294 55.499 50.294 56.0298C50.294 56.5605 50.0831 57.0695 49.7078 57.4448C49.3325 57.8201 48.8235 58.0309 48.2928 58.0309ZM22.2774 58.0309C21.7466 58.0309 21.2376 57.8201 20.8623 57.4448C20.487 57.0695 20.2762 56.5605 20.2762 56.0298C20.2762 55.499 20.487 54.99 20.8623 54.6147C21.2376 54.2394 21.7466 54.0286 22.2774 54.0286C22.8081 54.0286 23.3171 54.2394 23.6924 54.6147C24.0677 54.99 24.2786 55.499 24.2786 56.0298C24.2786 56.5605 24.0677 57.0695 23.6924 57.4448C23.3171 57.8201 22.8081 58.0309 22.2774 58.0309Z" stroke="#2563C5" stroke-width="4.57143" stroke-linecap="round" stroke-linejoin="round"/>
</svg>
