<svg width="38" height="28" viewBox="0 0 38 28" fill="none" xmlns="http://www.w3.org/2000/svg">
<path d="M16.6883 19.3996L32.9697 3.11819C33.0957 2.99213 33.2454 2.89214 33.4101 2.82391C33.5748 2.75569 33.7513 2.72058 33.9296 2.72058C34.1079 2.72058 34.2844 2.75569 34.4491 2.82391C34.6138 2.89214 34.7635 2.99213 34.8895 3.11819C35.0156 3.24425 35.1156 3.3939 35.1838 3.55861C35.252 3.72331 35.2871 3.89984 35.2871 4.07811C35.2871 4.25639 35.252 4.43292 35.1838 4.59762C35.1156 4.76233 35.0156 4.91198 34.8895 5.03804L18.6081 21.3194C18.4821 21.4455 18.3324 21.5455 18.1677 21.6137C18.003 21.6819 17.8265 21.7171 17.6482 21.7171C17.4699 21.7171 17.2934 21.6819 17.1287 21.6137C16.964 21.5455 16.8143 21.4455 16.6883 21.3194C16.5622 21.1934 16.4622 21.0437 16.394 20.879C16.3258 20.7143 16.2907 20.5378 16.2907 20.3595C16.2907 20.1812 16.3258 20.0047 16.394 19.84C16.4622 19.6753 16.5622 19.5257 16.6883 19.3996ZM35.9207 10.3532C35.8394 10.1947 35.7277 10.0537 35.5919 9.93826C35.4561 9.82286 35.2989 9.73534 35.1293 9.68069C34.9597 9.62604 34.781 9.60534 34.6033 9.61976C34.4257 9.63418 34.2527 9.68344 34.0941 9.76473C33.9355 9.84603 33.7945 9.95776 33.6791 10.0935C33.5637 10.2293 33.4762 10.3865 33.4216 10.5561C33.3669 10.7257 33.3462 10.9045 33.3606 11.0821C33.3751 11.2597 33.4243 11.4327 33.5056 11.5913C34.5094 13.5625 35.1022 15.7171 35.248 17.9244C35.3937 20.1316 35.0895 22.3455 34.3536 24.4316L3.63943 24.4197C2.78249 21.9633 2.52515 19.3376 2.88885 16.7616C3.25254 14.1855 4.22675 11.7337 5.73024 9.61059C7.23374 7.48744 9.22297 5.75444 11.5321 4.55605C13.8413 3.35766 16.4034 2.72861 19.005 2.72133H19.1542C21.6811 2.73722 24.1688 3.34724 26.4164 4.50211C26.5754 4.58962 26.7504 4.64434 26.9309 4.66303C27.1115 4.68171 27.2939 4.66399 27.4675 4.6109C27.641 4.55781 27.8022 4.47044 27.9414 4.35395C28.0806 4.23747 28.195 4.09424 28.2778 3.93275C28.3607 3.77126 28.4103 3.59479 28.4237 3.41378C28.4371 3.23278 28.4141 3.05092 28.3559 2.87898C28.2978 2.70704 28.2058 2.5485 28.0853 2.41276C27.9648 2.27702 27.8183 2.16684 27.6545 2.08873C24.2709 0.355649 20.4452 -0.322303 16.6722 0.142571C12.8991 0.607446 9.35238 2.19376 6.4907 4.69631C3.62902 7.19886 1.58409 10.5025 0.620425 14.1799C-0.343243 17.8573 -0.181308 21.7393 1.08528 25.3237C1.27238 25.8547 1.61937 26.3148 2.07854 26.6406C2.53772 26.9665 3.08655 27.1421 3.6496 27.1434H34.3587C34.9215 27.1438 35.4704 26.9691 35.9295 26.6437C36.3887 26.3183 36.7353 25.8582 36.9213 25.327C37.7771 22.8932 38.1296 20.3108 37.9576 17.7366C37.7856 15.1624 37.0926 12.65 35.9207 10.3515V10.3532Z" fill="#2563C5"/>
</svg>
